<svg xmlns="http://www.w3.org/2000/svg" viewBox="0 0 30 37"><defs><style>.cls-1{fill:#00bcd5;}.cls-2{fill:#fff;}</style></defs><title>Ресурс 21</title><g id="Слой_2" data-name="Слой 2"><g id="Слой_1-2" data-name="Слой 1"><path id="Path_340-7" data-name="Path 340-7" class="cls-1" d="M15,0A15,15,0,0,0,0,15H0c0,7.53,9.35,17.43,13.28,21.26a2.52,2.52,0,0,0,3.48,0C20.72,32.62,30,23.1,30,15A15,15,0,0,0,15,0Z"/><path class="cls-2" d="M11,14.81a1.06,1.06,0,1,0,1.06,1.06A1.05,1.05,0,0,0,11,14.81Z"/><path class="cls-2" d="M19.48,14.81a1.06,1.06,0,1,0,0,2.11,1.06,1.06,0,0,0,0-2.11Z"/><path class="cls-2" d="M23.68,14.08v-.15a8.43,8.43,0,1,0-16.86-.37v.52c-1.09.28-2.47,1.25-2.47,2.53s1.29,2.26,2.51,2.55a5,5,0,0,0,2.59,4,12,12,0,0,0,5.1,1.14c.23,0,.46,0,.69,0a12,12,0,0,0,5.82-1.13,5,5,0,0,0,2.58-4c1.24-.29,2.54-1.35,2.54-2.55S24.79,14.35,23.68,14.08Zm0,1.41c.55.24,1.16.69,1.16,1.12s-.6.89-1.16,1.13ZM20.43,22a10.71,10.71,0,0,1-5.19,1,10.69,10.69,0,0,1-5.15-1,3.84,3.84,0,0,1-1.93-3.68V13.92a7,7,0,0,1,5-6.78h.22a3.06,3.06,0,0,1,3,2.66A1.42,1.42,0,0,1,15,11.21a1,1,0,0,1-1-1,.69.69,0,0,1,.68-.67.67.67,0,0,0,0-1.34,2,2,0,0,0-2,2A2.34,2.34,0,0,0,15,12.55a2.77,2.77,0,0,0,2.76-2.77,3.79,3.79,0,0,0-1.25-2.67l-.21-.19a7.14,7.14,0,0,1,6,7V18.3h.13l-.13,0A3.82,3.82,0,0,1,20.43,22ZM6.82,15.49v2.25c-.55-.24-1.13-.69-1.13-1.13S6.28,15.73,6.82,15.49Z"/><path class="cls-2" d="M17.17,17.74h0a.7.7,0,0,0-.47.19,2,2,0,0,1-2.88,0,.71.71,0,0,0-.48-.19h0a.68.68,0,0,0-.47.19.66.66,0,0,0,0,.95,3.38,3.38,0,0,0,4.78,0,.69.69,0,0,0,0-.95A.7.7,0,0,0,17.17,17.74Z"/></g></g></svg>