<svg xmlns="http://www.w3.org/2000/svg" viewBox="0 0 30 37"><defs><style>.cls-1{fill:#546f7a;}.cls-2{fill:#fff;}</style></defs><title>Ресурс 20</title><g id="Слой_2" data-name="Слой 2"><g id="Слой_1-2" data-name="Слой 1"><path id="Path_340-8" data-name="Path 340-8" class="cls-1" d="M15,0A15,15,0,0,0,0,15H0c0,7.53,9.35,17.43,13.28,21.26a2.52,2.52,0,0,0,3.48,0C20.72,32.62,30,23.1,30,15A15,15,0,0,0,15,0Z"/><path class="cls-2" d="M20.49,6.22h-11A2.1,2.1,0,0,0,7.35,8.31V21.58a2,2,0,0,0,.74,1.48v1.27a1.53,1.53,0,0,0,1.53,1.54H10a1.53,1.53,0,0,0,1.53-1.54v-.67H18.4v.67a1.53,1.53,0,0,0,1.54,1.54h.37a1.54,1.54,0,0,0,1.53-1.54V23.16a2.1,2.1,0,0,0,.73-1.59V8.31A2.1,2.1,0,0,0,20.49,6.22ZM21.34,18v3.62a.87.87,0,0,1-.85.85H9.62a1,1,0,0,1-1-.85V18Zm-11,5.71v.68a.28.28,0,0,1-.3.29H9.62a.28.28,0,0,1-.21-.08.32.32,0,0,1-.09-.22v-.7a1.53,1.53,0,0,0,.3,0Zm9.34,0h1v.69a.3.3,0,0,1-.31.29h-.37a.31.31,0,0,1-.21-.08.32.32,0,0,1-.09-.22Zm1.71-13v6.08H8.58V10.64Zm0-1.23H8.58V8.31a.87.87,0,0,1,.85-.85H20.48a.87.87,0,0,1,.86.85Z"/><circle class="cls-2" cx="11.24" cy="20" r="1"/><circle class="cls-2" cx="18.24" cy="20" r="1"/></g></g></svg>