<svg xmlns="http://www.w3.org/2000/svg" viewBox="0 0 30 37"><defs><style>.cls-1{fill:#ff9700;}.cls-2{fill:#fff;}</style></defs><title>Ресурс 16</title><g id="Слой_2" data-name="Слой 2"><g id="Слой_1-2" data-name="Слой 1"><path id="Path_340-2" data-name="Path 340-2" class="cls-1" d="M15,0A15,15,0,0,0,0,15H0c0,7.53,9.35,17.43,13.28,21.26a2.52,2.52,0,0,0,3.48,0C20.72,32.62,30,23.1,30,15A15,15,0,0,0,15,0Z"/><path class="cls-2" d="M22.36,15.85H21.3V14.19a.76.76,0,0,0-.75-.75h-12a.75.75,0,0,0-.75.75v4c0,5.2,5.08,5.2,6.76,5.2,1.29,0,4.61,0,6.06-2.41h1.16c1.91,0,3.15-1,3.15-2.55A2.28,2.28,0,0,0,22.36,15.85Zm-7.82,6c-3.74,0-5.26-1.07-5.26-3.7V14.94H19.8v3.22C19.8,20.79,18.27,21.86,14.54,21.86Zm7.22-2.41h-.6a6.29,6.29,0,0,0,.14-1.29v-.81h1.06c.85,0,1.05.19,1.05,1S22.25,19.45,21.76,19.45Z"/><path class="cls-2" d="M14.73,11.33a.75.75,0,0,0,.75-.75V5.5a.75.75,0,0,0-1.5,0v5.08A.74.74,0,0,0,14.73,11.33Z"/><path class="cls-2" d="M18.14,11.33a.74.74,0,0,0,.75-.75V8.78a.75.75,0,0,0-1.5,0v1.8A.75.75,0,0,0,18.14,11.33Z"/><path class="cls-2" d="M10.93,11.33a.74.74,0,0,0,.75-.75V7a.75.75,0,0,0-1.5,0v3.6A.75.75,0,0,0,10.93,11.33Z"/></g></g></svg>