<svg xmlns="http://www.w3.org/2000/svg" viewBox="0 0 30 37"><defs><style>.cls-1{fill:#890e4f;}.cls-2{fill:#fff;}</style></defs><title>Ресурс 23</title><g id="Слой_2" data-name="Слой 2"><g id="Слой_1-2" data-name="Слой 1"><path id="Path_340-12" data-name="Path 340-12" class="cls-1" d="M15,0A15,15,0,0,0,0,15H0c0,7.53,9.35,17.43,13.28,21.26a2.52,2.52,0,0,0,3.48,0C20.72,32.62,30,23.1,30,15A15,15,0,0,0,15,0Z"/><path class="cls-2" d="M23.71,12.38h-.87a1.3,1.3,0,0,1-.8-.28L18.36,9.14a2.31,2.31,0,0,0-1.45-.51H10.15a2.33,2.33,0,0,0-1.94,1l-.8,1.2a1.3,1.3,0,0,1-1.06.57A2.34,2.34,0,0,0,4,13.77v1.87a2.35,2.35,0,0,0,1.91,2.29,2.33,2.33,0,0,0,4.58,0h9.44a2.33,2.33,0,0,0,4.58,0,2.27,2.27,0,0,0,1.92-2.2v-.1A3,3,0,0,0,23.71,12.38ZM8.22,18.91a1.39,1.39,0,0,1-1.4-1.39h0a1.4,1.4,0,1,1,1.4,1.41Zm14,0a1.4,1.4,0,0,1-1.4-1.39h0a1.4,1.4,0,1,1,1.4,1.41ZM24.5,17a2.33,2.33,0,0,0-4.56.05H10.5A2.33,2.33,0,0,0,6,17a1.39,1.39,0,0,1-1-1.33V13.77a1.4,1.4,0,0,1,1.4-1.4,2.22,2.22,0,0,0,1.84-1l.8-1.2a1.4,1.4,0,0,1,1.17-.62h6.75a1.41,1.41,0,0,1,.88.31l3.68,2.94a2.18,2.18,0,0,0,1.38.49h.79c1.37,0,1.87,1.4,1.87,2.33A1.36,1.36,0,0,1,24.5,17Z"/><path class="cls-2" d="M19.43,12.37h-4.2V11a.47.47,0,0,0-.94,0v1.86a.47.47,0,0,0,.47.47h4.67a.47.47,0,0,0,0-.93Z"/><path class="cls-2" d="M12.89,12.37h-3l.6-1.19a.47.47,0,0,0-.84-.42l-.93,1.87a.46.46,0,0,0,.21.62.36.36,0,0,0,.21.05h3.73a.47.47,0,1,0,0-.93Z"/><path class="cls-2" d="M16.63,14.24h-.94a.46.46,0,0,0-.47.46.47.47,0,0,0,.47.47h.94a.47.47,0,0,0,0-.93Z"/></g></g></svg>