<svg xmlns="http://www.w3.org/2000/svg" viewBox="0 0 40 44.41"><defs><style>.cls-1{fill:#e94200;}.cls-2{fill:#fff;}</style></defs><title>Ресурс 26</title><g id="Слой_2" data-name="Слой 2"><g id="Слой_1-2" data-name="Слой 1"><path class="cls-1" d="M40,20A20,20,0,1,0,14.91,39.32L20,44.41l5.09-5.09A20,20,0,0,0,40,20Z"/><path id="Path_4" data-name="Path 4" class="cls-2" d="M16.24,14.4h17a15,15,0,0,0-8.86-8.09Z"/><path id="Path_5" data-name="Path 5" class="cls-2" d="M34,16.42h-20a1.15,1.15,0,0,1-1.16-1.15,1.19,1.19,0,0,1,.34-.82L22,5.66A14.47,14.47,0,0,0,5.86,23.12h20.2a1.15,1.15,0,0,1,1.15,1.15,1.18,1.18,0,0,1-.33.82l-9.21,9.2A14.49,14.49,0,0,0,34,16.42Z"/><path id="Path_6" data-name="Path 6" class="cls-2" d="M23.87,25.12H6.61A15,15,0,0,0,15.4,33.6Z"/></g></g></svg>