<svg xmlns="http://www.w3.org/2000/svg" viewBox="0 0 30 37"><defs><style>.cls-1{fill:#fe1000;}.cls-2{fill:#fff;}</style></defs><title>Ресурс 22</title><g id="Слой_2" data-name="Слой 2"><g id="Слой_1-2" data-name="Слой 1"><path id="Path_340-5" data-name="Path 340-5" class="cls-1" d="M15,0A15,15,0,0,0,0,15H0c0,7.53,9.35,17.43,13.28,21.26a2.52,2.52,0,0,0,3.48,0C20.72,32.62,30,23.1,30,15A15,15,0,0,0,15,0Z"/><path class="cls-2" d="M22.11,8.85H19.82V7.71a2.3,2.3,0,0,0-2.29-2.3H13a2.31,2.31,0,0,0-2.3,2.3V8.85H8.36a2.3,2.3,0,0,0-2.29,2.29V20.3a2.29,2.29,0,0,0,2.29,2.29H22.11A2.29,2.29,0,0,0,24.4,20.3V11.14A2.3,2.3,0,0,0,22.11,8.85ZM11.8,7.71A1.14,1.14,0,0,1,13,6.56h4.58a1.14,1.14,0,0,1,1.14,1.15V8.85H11.8ZM23.26,20.3a1.16,1.16,0,0,1-1.15,1.15H8.36A1.14,1.14,0,0,1,7.22,20.3V11.14A1.14,1.14,0,0,1,8.36,10H22.11a1.15,1.15,0,0,1,1.15,1.14Z"/><path class="cls-2" d="M18.67,13.43H17.53V12.29a1.15,1.15,0,0,0-1.15-1.15H14.09A1.14,1.14,0,0,0,13,12.29v1.14H11.8a1.16,1.16,0,0,0-1.15,1.15v2.29A1.15,1.15,0,0,0,11.8,18H13v1.15a1.14,1.14,0,0,0,1.14,1.14h2.29a1.15,1.15,0,0,0,1.15-1.14V18h1.14a1.14,1.14,0,0,0,1.15-1.14V14.58A1.15,1.15,0,0,0,18.67,13.43Zm0,3.44H16.38v2.29H14.09V16.87H11.8V14.58h2.29V12.29h2.29v2.29h2.29Z"/></g></g></svg>