<svg xmlns="http://www.w3.org/2000/svg" viewBox="0 0 30 37"><defs><style>.cls-1{fill:#065df3;}.cls-2{fill:#fff;}</style></defs><title>Ресурс 14</title><g id="Слой_2" data-name="Слой 2"><g id="Слой_1-2" data-name="Слой 1"><path id="Path_340-6" data-name="Path 340-6" class="cls-1" d="M15,0A15,15,0,0,0,0,15H0c0,7.53,9.35,17.43,13.28,21.26a2.52,2.52,0,0,0,3.48,0C20.72,32.62,30,23.1,30,15A15,15,0,0,0,15,0Z"/><path class="cls-2" d="M10.15,22.43a1,1,0,0,1-.56-.17,9.18,9.18,0,0,1-4.06-7.75,8.67,8.67,0,0,1,5.3-7.91l.4-.17.39-.16c.34.55.47.54,3.43,8.58,2.61-6.21,3.28-7.68,3.31-7.75l.43-1,.94.49a9,9,0,0,1,4.81,7.88,9.34,9.34,0,0,1-3.82,7.73,1,1,0,1,1-1.18-1.62,7.32,7.32,0,0,0,3-6.08A7,7,0,0,0,19.72,9c-.55,1.27-1.68,3.91-3.81,9l-1,2.34-.87-2.39c-1.87-5.08-2.87-7.74-3.36-9a6.68,6.68,0,0,0-3.16,5.62,7.22,7.22,0,0,0,3.18,6.08A1,1,0,0,1,11,22,1,1,0,0,1,10.15,22.43Z"/></g></g></svg>