<svg xmlns="http://www.w3.org/2000/svg" viewBox="0 0 30 37"><defs><style>.cls-1{fill:#4cb050;}.cls-2{fill:#fff;}</style></defs><title>Ресурс 19</title><g id="Слой_2" data-name="Слой 2"><g id="Слой_1-2" data-name="Слой 1"><path id="Path_340" data-name="Path 340" class="cls-1" d="M15,0A15,15,0,0,0,0,15H0c0,7.53,9.35,17.43,13.28,21.26a2.52,2.52,0,0,0,3.48,0C20.72,32.62,30,23.1,30,15A15,15,0,0,0,15,0Z"/><path class="cls-2" d="M19.41,12.38a5.73,5.73,0,0,0-1.31-.07c-.35-3.72-2.77-6.62-5.69-6.62-3.16,0-5.73,3.4-5.73,7.57,0,3.83,2.17,7,5,7.49V24a.75.75,0,0,0,1.5,0V20.75a4.93,4.93,0,0,0,.93-.26,5.25,5.25,0,0,0,3.56,2.21V24a.75.75,0,0,0,1.5,0V22.7a5.24,5.24,0,0,0,.26-10.32Zm-7,0a.75.75,0,0,0-.75.75v6.07c-2-.51-3.48-3-3.48-6,0-3.35,1.9-6.07,4.23-6.07s4.24,2.72,4.24,6.07c0,3-1.51,5.45-3.49,6V13.15A.74.74,0,0,0,12.41,12.4Zm9.26,6.93a3.72,3.72,0,0,1-2.52,1.84V19.51a.75.75,0,1,0-1.5,0v1.66a3.71,3.71,0,0,1-2.27-1.45,8.15,8.15,0,0,0,2.75-5.91,3.64,3.64,0,0,1,1,0,3.74,3.74,0,0,1,3,3.66A3.8,3.8,0,0,1,21.67,19.33Z"/></g></g></svg>