<svg xmlns="http://www.w3.org/2000/svg" viewBox="0 0 30 37"><defs><style>.cls-1{fill:#00b1ff;}.cls-2{fill:#fff;}</style></defs><title>Ресурс 25</title><g id="Слой_2" data-name="Слой 2"><g id="Слой_1-2" data-name="Слой 1"><path id="Path_340-10" data-name="Path 340-10" class="cls-1" d="M15,0A15,15,0,0,0,0,15H0c0,7.53,9.35,17.43,13.28,21.26a2.52,2.52,0,0,0,3.48,0C20.72,32.62,30,23.1,30,15A15,15,0,0,0,15,0Z"/><path class="cls-2" d="M24.68,16.26l-7.51-4.5V9.32a7.08,7.08,0,0,0-.69-3,1.76,1.76,0,0,0-1.1-1,1.65,1.65,0,0,0-1.87.85,7.09,7.09,0,0,0-.73,3.17v2.44l-7.51,4.5a.64.64,0,0,0-.29.53v2.15a.65.65,0,0,0,.24.5.55.55,0,0,0,.55.08l7-2.91v2.87l.31,1.63-3,1.77a.61.61,0,0,0-.28.5v1.3a.57.57,0,0,0,.56.57h.08l3.42-.57a1.29,1.29,0,0,0,2.14,0l3.41.56h.06a.58.58,0,0,0,.58-.57V23.36a.61.61,0,0,0-.28-.48l-2.95-1.77.29-1.52v-3l7,2.92a.65.65,0,0,0,.2,0,.5.5,0,0,0,.34-.12.62.62,0,0,0,.24-.5V16.79A.64.64,0,0,0,24.68,16.26Zm-.86.89v.9L17.17,15.3V13.17ZM19,23.7V24l-2.56-.43.24-1.26ZM11,24v-.3l2.32-1.39.24,1.26ZM16,9.32v10.1l-.87,4.52a.18.18,0,0,1-.2.16.2.2,0,0,1-.16-.18l-.86-4.47V9.31a5.82,5.82,0,0,1,.61-2.65A.49.49,0,0,1,15,6.4h.1a.56.56,0,0,1,.37.35A5.82,5.82,0,0,1,16,9.32Zm-3.24,6L6.13,18.05v-.91l6.65-4Z"/></g></g></svg>