<svg xmlns="http://www.w3.org/2000/svg" viewBox="0 0 30 37"><defs><style>.cls-1{fill:#1a237e;}.cls-2{fill:#fff;}</style></defs><title>Ресурс 24</title><g id="Слой_2" data-name="Слой 2"><g id="Слой_1-2" data-name="Слой 1"><path id="Path_340-11" data-name="Path 340-11" class="cls-1" d="M15,0A15,15,0,0,0,0,15H0c0,7.53,9.35,17.43,13.28,21.26a2.52,2.52,0,0,0,3.48,0C20.72,32.62,30,23.1,30,15A15,15,0,0,0,15,0Z"/><path id="boat-anchor" class="cls-2" d="M21.94,20.88l-.68-2.28a.28.28,0,0,0-.35-.19h0l-2.27.69a.27.27,0,0,0-.19.35.26.26,0,0,0,.13.16l.84.45a5.32,5.32,0,0,1-4,2.73v-9.3h1.7a1.14,1.14,0,1,0,1.79-1.4,1.13,1.13,0,0,0-1.59-.2,1.26,1.26,0,0,0-.2.2h-1.7V10.14a2.35,2.35,0,1,0-1.4,0v1.94h-1.7a1.14,1.14,0,1,0-.2,1.6.9.9,0,0,0,.2-.19h1.7v9.3a5.3,5.3,0,0,1-4-2.73l.84-.45a.29.29,0,0,0,.11-.38.28.28,0,0,0-.17-.13l-2.27-.69a.28.28,0,0,0-.35.19h0l-.68,2.28a.28.28,0,0,0,.19.35.31.31,0,0,0,.21,0l.88-.48a6.57,6.57,0,0,0,2.35,2.5C12.91,24.36,13.85,25,14.24,26c.07.18.19.44.5.44s.43-.26.5-.44c.39-1,1.33-1.64,3-2.77a6.57,6.57,0,0,0,2.35-2.5l.89.48a.29.29,0,0,0,.38-.12.31.31,0,0,0,0-.21Zm-7.19-12a.94.94,0,1,1,.94-.94A.94.94,0,0,1,14.75,8.84Z"/></g></g></svg>