<svg xmlns="http://www.w3.org/2000/svg" viewBox="0 0 30 37"><defs><style>.cls-1{fill:#fec107;}</style></defs><title>Ресурс 17</title><g id="Слой_2" data-name="Слой 2"><g id="Слой_1-2" data-name="Слой 1"><path id="Path_340-9" data-name="Path 340-9" class="cls-1" d="M15,0A15,15,0,0,0,0,15H0c0,7.53,9.35,17.43,13.28,21.26a2.52,2.52,0,0,0,3.48,0C20.72,32.62,30,23.1,30,15A15,15,0,0,0,15,0Z"/><path d="M23.59,17.14V15.41a.55.55,0,0,0-.55-.54,16,16,0,0,0-3.16.29A5,5,0,0,0,17.83,14a3.78,3.78,0,0,0,.89-4.71l2.06-.58V9.81l-.9,1.2h3L22,9.81V8.35l.49-.14a.5.5,0,0,0,.36-.5.49.49,0,0,0-.39-.47l-7-1.5h-.2L8.2,7.24a.51.51,0,0,0-.4.48.5.5,0,0,0,.37.49L12,9.27a3.8,3.8,0,0,0,.43,4.23,3.48,3.48,0,0,0,.47.47,5,5,0,0,0-2,1.19,16,16,0,0,0-3.16-.29.55.55,0,0,0-.55.54v1.73a1.64,1.64,0,0,0-1.09,1.54v1.09a1.64,1.64,0,0,0,1.09,1.54V23a.55.55,0,0,0,.55.55,12.68,12.68,0,0,1,7.36,2.12.55.55,0,0,0,.6,0A12.76,12.76,0,0,1,23,23.58a.55.55,0,0,0,.55-.54V21.31a1.64,1.64,0,0,0,1.09-1.54V18.68A1.64,1.64,0,0,0,23.59,17.14Zm-8.2-10.4,4.87,1L15.39,9.16l-5-1.37Zm-2.73,4.31a2.62,2.62,0,0,1,.46-1.48l2.14.59.13,0,.13,0,2.12-.59a2.7,2.7,0,0,1-2.26,4.21A2.74,2.74,0,0,1,12.66,11.05ZM7.72,20.32a.55.55,0,0,1-.55-.55V18.68a.55.55,0,0,1,1.09,0v1.09A.55.55,0,0,1,7.72,20.32Zm7.11,4A13.62,13.62,0,0,0,8.26,22.5V21.31a1.64,1.64,0,0,0,1.09-1.54V18.68a1.64,1.64,0,0,0-1.09-1.54V16a12.38,12.38,0,0,1,6.58,1.93Zm.55-7.34a13,13,0,0,0-3.17-1.45,3.76,3.76,0,0,1,2.08-.62h2.18a3.76,3.76,0,0,1,2.08.62A13.18,13.18,0,0,0,15.38,16.94ZM22.5,22.5a13.62,13.62,0,0,0-6.57,1.78V17.89A12.22,12.22,0,0,1,22.5,16v1.17a1.64,1.64,0,0,0-1.09,1.54v1.09a1.64,1.64,0,0,0,1.09,1.54Zm1.09-2.73a.55.55,0,1,1-1.09,0V18.68a.55.55,0,0,1,1.09,0Z"/></g></g></svg>