<svg xmlns="http://www.w3.org/2000/svg" viewBox="0 0 30 37"><defs><style>.cls-1{fill:#673bb7;}.cls-2{fill:none;}.cls-3{fill:#fff;}</style></defs><title>Ресурс 15</title><g id="Слой_2" data-name="Слой 2"><g id="Слой_1-2" data-name="Слой 1"><path id="Path_340-3" data-name="Path 340-3" class="cls-1" d="M15,0A15,15,0,0,0,0,15H0c0,7.53,9.35,17.43,13.28,21.26a2.52,2.52,0,0,0,3.48,0C20.72,32.62,30,23.1,30,15A15,15,0,0,0,15,0Z"/><circle class="cls-2" cx="18.63" cy="21.18" r="1"/><circle class="cls-2" cx="11.63" cy="21.18" r="1"/><path class="cls-3" d="M18.63,18.68a2.5,2.5,0,0,0-2.34,1.64H14a2.51,2.51,0,0,0-1.76-1.57c-.07-.24-.12-.47-.18-.7l8.36-1.39a.75.75,0,0,0,.62-.74V11.5a.74.74,0,0,0-.75-.75h-10c-.1-.42-.17-.73-.22-.92A3.05,3.05,0,0,0,7,7.8.75.75,0,0,0,7,9.3s1.39,0,1.62.91c.07.26.19.78.36,1.52.35,1.54.93,4.06,1.71,7.14A2.5,2.5,0,1,0,14,21.82h2.19a2.49,2.49,0,1,0,2.4-3.14Zm.88-3.4-7.84,1.31c-.42-1.73-.77-3.21-1-4.34h8.87Zm-7.88,6.9a1,1,0,1,1,1-1A1,1,0,0,1,11.63,22.18Zm7,0a1,1,0,1,1,1-1A1,1,0,0,1,18.63,22.18Z"/></g></g></svg>