<svg xmlns="http://www.w3.org/2000/svg" viewBox="0 0 30 37"><defs><style>.cls-1{fill:#ff4181;}.cls-2{fill:#fff;}</style></defs><title>Ресурс 18</title><g id="Слой_2" data-name="Слой 2"><g id="Слой_1-2" data-name="Слой 1"><path id="Path_340-4" data-name="Path 340-4" class="cls-1" d="M15,0A15,15,0,0,0,0,15H0c0,7.53,9.35,17.43,13.28,21.26a2.52,2.52,0,0,0,3.48,0C20.72,32.62,30,23.1,30,15A15,15,0,0,0,15,0Z"/><path class="cls-2" d="M15,4.74a9.75,9.75,0,1,0,9.75,9.75A9.76,9.76,0,0,0,15,4.74Zm7.88,7.32a10.85,10.85,0,0,0-6.59,2.66l-1.52-1.53A10.86,10.86,0,0,0,17.43,6.6,8.27,8.27,0,0,1,22.88,12.06ZM15.94,6.29a9.33,9.33,0,0,1-2.23,5.84l-4-4A8.27,8.27,0,0,1,15,6.24C15.32,6.24,15.63,6.26,15.94,6.29ZM8.66,9.21l4,4a9.39,9.39,0,0,1-5.84,2.24,7.42,7.42,0,0,1-.06-.94A8.23,8.23,0,0,1,8.66,9.21Zm-1.54,7.7a10.85,10.85,0,0,0,6.59-2.66l1.52,1.53a10.86,10.86,0,0,0-2.66,6.59A8.27,8.27,0,0,1,7.12,16.91Zm6.94,5.77a9.27,9.27,0,0,1,2.23-5.84l4,4A8.26,8.26,0,0,1,15,22.74C14.68,22.74,14.37,22.71,14.06,22.68Zm7.28-2.92-4-4a9.39,9.39,0,0,1,5.84-2.24,7.46,7.46,0,0,1,.06,1A8.22,8.22,0,0,1,21.34,19.76Z"/></g></g></svg>