<?xml version="1.0" encoding="UTF-8" standalone="no"?>
<svg
   xmlns:dc="http://purl.org/dc/elements/1.1/"
   xmlns:cc="http://creativecommons.org/ns#"
   xmlns:rdf="http://www.w3.org/1999/02/22-rdf-syntax-ns#"
   xmlns:svg="http://www.w3.org/2000/svg"
   xmlns="http://www.w3.org/2000/svg"
   xmlns:sodipodi="http://sodipodi.sourceforge.net/DTD/sodipodi-0.dtd"
   xmlns:inkscape="http://www.inkscape.org/namespaces/inkscape"
   viewBox="0 0 625.3 155.1"
   id="svg2"
   version="1.1"
   inkscape:version="0.91 r13725"
   sodipodi:docname="logo-svetlanovskiy-light-green.svg">
  <metadata
     id="metadata14">
    <rdf:RDF>
      <cc:Work
         rdf:about="">
        <dc:format>image/svg+xml</dc:format>
        <dc:type
           rdf:resource="http://purl.org/dc/dcmitype/StillImage" />
        <dc:title></dc:title>
      </cc:Work>
    </rdf:RDF>
  </metadata>
  <defs
     id="defs12" />
  <sodipodi:namedview
     pagecolor="#ffffff"
     bordercolor="#666666"
     borderopacity="1"
     objecttolerance="10"
     gridtolerance="10"
     guidetolerance="10"
     inkscape:pageopacity="0"
     inkscape:pageshadow="2"
     inkscape:window-width="1366"
     inkscape:window-height="705"
     id="namedview10"
     showgrid="false"
     inkscape:zoom="0.60770831"
     inkscape:cx="311.00447"
     inkscape:cy="77.550003"
     inkscape:window-x="-8"
     inkscape:window-y="-8"
     inkscape:window-maximized="1"
     inkscape:current-layer="svg2" />
  <path
     d="M44.3 57c0-3.2.6-6.1 1.7-8.7 1.1-2.6 2.6-4.7 4.5-6.3 1.9-1.6 4-2.8 6.3-3.6 2.3-.8 4.8-1.2 7.3-1.2 2.8 0 5.5.5 8 1.4 2.5 1 4.7 2.6 6.7 4.9 1.9 2.3 3.2 5.1 3.6 8.4h-9.8c-1.3-3.7-4.1-5.5-8.5-5.5-2.9 0-5.3 1-7 2.9-1.8 1.9-2.7 4.5-2.7 7.7 0 2.9.9 5.4 2.7 7.4 1.8 2.1 4.1 3.1 7 3.1 2.2 0 4-.5 5.5-1.5s2.5-2.6 3-4.6h9.8c-.5 3.5-1.7 6.5-3.6 8.8-1.9 2.4-4.1 4.1-6.6 5.1s-5.2 1.5-8.1 1.5c-2.5 0-4.9-.4-7.3-1.3-2.3-.9-4.5-2.1-6.3-3.7-1.9-1.6-3.4-3.7-4.5-6.2-1.1-2.6-1.7-5.4-1.7-8.6zm76-7.7c0 1.2-.3 2.5-.9 3.7-.6 1.2-1.4 2.2-2.3 3 1.6.8 2.7 1.9 3.6 3.4.8 1.5 1.2 3.1 1.2 4.9 0 3.4-1.1 6.3-3.2 8.5-2.2 2.2-5.2 3.3-9.1 3.3H91V37.4h17.1c3.6 0 6.6 1.1 8.8 3.3 2.3 2.2 3.4 5 3.4 8.6zm-12.9-3.1h-6.3v6.5h6.3c.9 0 1.6-.3 2.2-.9.5-.6.8-1.3.8-2.2 0-.9-.2-1.7-.7-2.4-.6-.6-1.4-1-2.3-1zm1.5 14.7h-7.8v6.4h7.8c1.8 0 2.8-1 3-3 .1-.9-.2-1.7-.7-2.4-.6-.6-1.4-1-2.3-1zm46.2-23.3v8.8H141v5.5h13v8.9h-13v6.3h14.6v9.3h-24.7V37.6h24.2zm16.9 8.8h-9.5v-8.9h28.8v8.9h-9.5v29.9H172V46.4zm39 .2l-1.5 17.8c-.3 3.8-1 6.6-2.1 8.4-1.1 1.8-2.7 3-4.9 3.5s-5.2.5-8.8-.1l.2-7.3c2.1.2 3.6 0 4.2-.7.7-.6 1.1-2 1.4-4.2l2.7-26.5h27.4v38.8h-10.1V46.6H211zm52.8 25h-14.5l-2.2 4.8h-10.6V75l17.8-37.8h4.7L276.6 75v1.4h-10.5l-2.3-4.8zm-7.2-17.9l-4 9.4h8l-4-9.4zm59.3 22.7h-10.1V60.9h-12v15.5h-10.1V37.6h10.1v14h12v-14h10.1v38.8zM364.5 57c0 5.9-1.9 10.7-5.6 14.5-3.7 3.8-8.5 5.6-14.4 5.6-2.6 0-5.1-.4-7.5-1.3-2.3-.9-4.5-2.1-6.3-3.7-1.9-1.6-3.3-3.7-4.4-6.3-1.1-2.6-1.6-5.5-1.6-8.8 0-4.3 1-8 2.9-11.1 2-3.1 4.4-5.4 7.4-6.9s6.2-2.2 9.7-2.2c2.5 0 4.9.4 7.3 1.3 2.3.9 4.5 2.1 6.3 3.7 1.9 1.6 3.4 3.7 4.5 6.4 1.2 2.6 1.7 5.5 1.7 8.8zm-29.6 0c0 3.3 1 5.9 2.9 7.7 1.9 1.9 4.2 2.8 6.9 2.8 2.6 0 4.9-.9 6.8-2.8 1.9-1.9 2.9-4.4 2.9-7.7s-1-5.9-2.9-7.7c-1.9-1.9-4.2-2.8-6.8-2.8-2.7 0-5.1.9-7 2.7-1.9 1.8-2.8 4.4-2.8 7.8zm67.7-7.7c0 1.2-.3 2.5-.9 3.7-.6 1.2-1.4 2.2-2.3 3 1.6.8 2.7 1.9 3.6 3.4.8 1.5 1.2 3.1 1.2 4.9 0 3.4-1.1 6.3-3.2 8.5-2.2 2.2-5.2 3.3-9.1 3.3h-18.7V37.4h17.1c3.6 0 6.6 1.1 8.8 3.3 2.4 2.2 3.5 5 3.5 8.6zm-12.9-3.1h-6.3v6.5h6.3c.9 0 1.6-.3 2.2-.9.5-.6.8-1.3.8-2.2 0-.9-.2-1.7-.7-2.4-.6-.6-1.4-1-2.3-1zm1.5 14.7h-7.8v6.4h7.8c1.8 0 2.8-1 3-3 .1-.9-.2-1.7-.7-2.4-.6-.6-1.4-1-2.3-1zm20.2-3.9c0-3.2.6-6.1 1.7-8.7 1.1-2.6 2.6-4.7 4.5-6.3 1.9-1.6 4-2.8 6.3-3.6 2.3-.8 4.8-1.2 7.3-1.2 2.8 0 5.5.5 8 1.4 2.5 1 4.7 2.6 6.7 4.9 1.9 2.3 3.2 5.1 3.6 8.4h-9.8c-1.3-3.7-4.1-5.5-8.5-5.5-2.9 0-5.3 1-7 2.9-1.8 1.9-2.7 4.5-2.7 7.7 0 2.9.9 5.4 2.7 7.4 1.8 2.1 4.1 3.1 7 3.1 2.2 0 4-.5 5.5-1.5s2.5-2.6 3-4.6h9.8c-.5 3.5-1.7 6.5-3.6 8.8-1.9 2.4-4.1 4.1-6.6 5.1s-5.2 1.5-8.1 1.5c-2.5 0-4.9-.4-7.3-1.3-2.3-.9-4.5-2.1-6.3-3.7-1.9-1.6-3.4-3.7-4.5-6.2-1.2-2.6-1.7-5.4-1.7-8.6zm70 19.4l-8.5-15c-.8.1-2.4.2-4.8.2v14.8H458V37.6h10.1v15.2c3 0 4.9-.2 5.7-.6.8-.4 1.4-1.2 1.9-2.2.4-1.1 1-3 1.6-5.6.7-2.7 2.1-4.7 4.4-6 2.2-1.3 5.5-1.6 9.7-.7v6.8c-2.6-.2-4.2.7-4.7 2.8-1.3 4.8-2.9 8.3-4.8 10.3L493 75v1.5h-11.6zm42.7-20l-20.4 20.1h-3V37.6h10.1v19L531 37.5h3.2v39h-10.1V56.4zm21 20.1V37.6h10.1v19l20.2-19.1h3.2v39h-10.1v-20l-20.5 20h-2.9zm11.7-43.3c1.6 1.5 3.8 2.3 6.7 2.3 3 0 5.2-.8 6.8-2.3 1.6-1.5 2.4-3.8 2.5-6.7-2.5-.3-4.3-.5-5.5-.6-.3 2-1.6 2.9-3.9 2.9s-3.5-1-3.6-2.9l-5.5.6c0 2.9.9 5.2 2.5 6.7zM423.6 139.6l-4.3-7.6c-.4.1-1.2.1-2.5.1v7.5h-5.2v-19.8h5.2v7.7c1.5 0 2.5-.1 2.9-.3.4-.2.7-.6 1-1.1.2-.6.5-1.5.8-2.9.3-1.4 1.1-2.4 2.2-3.1 1.1-.7 2.8-.8 4.9-.3v3.5c-1.3-.1-2.1.4-2.4 1.4-.7 2.5-1.5 4.2-2.4 5.3l5.7 8.8v.8h-5.9zm26.1-13.8c0 .6-.2 1.2-.5 1.9-.3.6-.7 1.1-1.2 1.5.8.4 1.4 1 1.8 1.7.4.8.6 1.6.6 2.5 0 1.8-.6 3.2-1.7 4.3-1.1 1.1-2.6 1.7-4.6 1.7h-9.5v-19.8h8.7c1.8 0 3.3.6 4.5 1.7 1.3 1.2 1.9 2.7 1.9 4.5zm-6.6-1.6h-3.2v3.3h3.2c.5 0 .8-.2 1.1-.5.3-.3.4-.7.4-1.1 0-.5-.1-.9-.4-1.2-.3-.3-.6-.5-1.1-.5zm.7 7.5h-4v3.3h4c.9 0 1.4-.5 1.5-1.5 0-.5-.1-.9-.4-1.2-.2-.4-.6-.6-1.1-.6zm24.1 5.5h-7.4l-1.1 2.5H454v-.7l9.1-19.3h2.4l9 19.3v.7h-5.3l-1.3-2.5zm-3.7-9.1l-2 4.8h4.1l-2.1-4.8zm20.2 11.5h-5.2v-19.8h8.7c2.2 0 4 .7 5.3 2.2 1.3 1.5 1.9 3.2 1.8 5.2 0 2-.6 3.7-1.9 5.1-1.3 1.4-3 2.1-5.2 2.1h-3.6v5.2zm-.1-9.6h3.6c.6 0 1.2-.3 1.6-.9.4-.6.6-1.2.6-2s-.2-1.4-.6-2c-.4-.6-.9-.8-1.6-.8h-3.6v5.7zm19.9-5.6h-4.9v-4.5H514v4.5h-4.8v15.3h-5v-15.3zm25.4 12.8h-7.4l-1.1 2.5h-5.4v-.7l9.1-19.3h2.4l9 19.3v.7h-5.3l-1.3-2.5zm-3.7-9.1l-2 4.8h4.1l-2.1-4.8zm22.9-3.7l-.8 9.1c-.2 1.9-.5 3.3-1.1 4.3-.5.9-1.4 1.5-2.5 1.8-1.1.3-2.6.2-4.5-.1l.1-3.7c1.1.1 1.8 0 2.2-.3.3-.3.6-1 .7-2.1l1.4-13.5h14v19.8h-5.1v-15.2h-4.4z"
     fill="#FFF"
     id="path4"
     style="fill:#b2cd32;fill-opacity:1" />
  <path
     fill="#FFF"
     d="M332.8 105.2v49.9h245.5v-49.9H332.8zm20.1 30.6c.6.4 1.4.7 2.3.7.9 0 1.6-.2 2.3-.7.6-.5 1-1.1 1-2v-15h5.8v15.1c0 2.4-.9 4.3-2.7 5.7-1.8 1.4-3.9 2.1-6.4 2.1-2.5 0-4.7-.7-6.5-2.1-1.8-1.4-2.7-3.3-2.7-5.7v-15.1h5.9v15c0 .8.4 1.5 1 2zM383 133c-1.3 1.5-3.1 2.3-5.4 2.4v-6.2h2.6l-5-7.4-5 7.4h2.6v12.1h-5.7v-22.5h10c2.6 0 4.6.8 6 2.5 1.4 1.7 2.1 3.7 2.1 5.9 0 2.3-.8 4.2-2.2 5.8zm189.3 16.1H395.4v-37.8h176.9v37.8z"
     id="path6"
     style="fill:#b2cd32;fill-opacity:1" />
  <path
     fill="#FFF"
     d="M625.3 114.9h-31.5v-8.5h23V8.5H8.5v97.9h308v8.5H0V0h625.3z"
     id="path8"
     style="fill:#b2cd32;fill-opacity:1" />
</svg>
