<?xml version="1.0" encoding="UTF-8" standalone="no"?>
<!-- Generator: Adobe Illustrator 16.0.1, SVG Export Plug-In . SVG Version: 6.00 Build 0)  -->

<svg
   xmlns:dc="http://purl.org/dc/elements/1.1/"
   xmlns:cc="http://creativecommons.org/ns#"
   xmlns:rdf="http://www.w3.org/1999/02/22-rdf-syntax-ns#"
   xmlns:svg="http://www.w3.org/2000/svg"
   xmlns="http://www.w3.org/2000/svg"
   xmlns:sodipodi="http://sodipodi.sourceforge.net/DTD/sodipodi-0.dtd"
   xmlns:inkscape="http://www.inkscape.org/namespaces/inkscape"
   version="1.1"
   id="Layer_1"
   x="0px"
   y="0px"
   width="194.821px"
   height="159.938px"
   viewBox="0 0 194.821 159.938"
   enable-background="new 0 0 194.821 159.938"
   xml:space="preserve"
   inkscape:version="0.92.2 (5c3e80d, 2017-08-06)"
   sodipodi:docname="metro-logo-blue.svg"><metadata
     id="metadata9"><rdf:RDF><cc:Work
         rdf:about=""><dc:format>image/svg+xml</dc:format><dc:type
           rdf:resource="http://purl.org/dc/dcmitype/StillImage" /><dc:title></dc:title></cc:Work></rdf:RDF></metadata><defs
     id="defs7" /><sodipodi:namedview
     pagecolor="#ffffff"
     bordercolor="#666666"
     borderopacity="1"
     objecttolerance="10"
     gridtolerance="10"
     guidetolerance="10"
     inkscape:pageopacity="0"
     inkscape:pageshadow="2"
     inkscape:window-width="1600"
     inkscape:window-height="838"
     id="namedview5"
     showgrid="false"
     inkscape:zoom="1.4755718"
     inkscape:cx="-113.69411"
     inkscape:cy="79.969005"
     inkscape:window-x="-8"
     inkscape:window-y="-8"
     inkscape:window-maximized="1"
     inkscape:current-layer="Layer_1" /><g
     id="Слой_x0020_1"
     style="fill:#136fb3;fill-opacity:1"><path
       id="path4"
       fill="#FFFFFF"
       d="M163.151,20.027C146.185,4.729,130.052,0,130.052,0L97.509,110.844h-0.279L64.407,0   c0,0-16.133,4.59-33.1,20.027c-18.08,16.41-33.656,41.584-31.014,81.498c2.086,31.57,25.451,58.412,25.451,58.412l45.199-0.139   c0,0-38.803-20.584-48.12-52.988C11.698,68.564,29.083,42,42.435,29.345c5.424-4.729,13.351-5.841,16.271,4.312   C68.72,66.061,97.368,158.824,97.368,158.824l0.141,0.001c0,0,28.51-92.765,38.662-125.169c3.061-10.152,10.987-9.039,16.271-4.311   c13.352,12.655,30.736,39.219,19.61,77.465c-9.318,32.404-48.12,52.988-48.12,52.988l45.199,0.139c0,0,23.504-26.98,25.451-58.412   C196.948,61.611,181.37,36.438,163.151,20.027L163.151,20.027z"
       style="fill:#136fb3;fill-opacity:1" /></g></svg>