<?xml version="1.0" encoding="UTF-8"?>
<svg width="25px" height="25px" viewBox="0 0 25 25" version="1.1" xmlns="http://www.w3.org/2000/svg" xmlns:xlink="http://www.w3.org/1999/xlink">
    <!-- Generator: sketchtool 46.1 (44463) - http://www.bohemiancoding.com/sketch -->
    <title>085E6100-2AA2-42FC-B73E-3EC29ED83B95</title>
    <desc>Created with sketchtool.</desc>
    <defs></defs>
    <g id="Page-1" stroke="none" stroke-width="1" fill="none" fill-rule="evenodd">
        <g id="LP-UP" transform="translate(-135.000000, -600.000000)" fill-rule="nonzero" fill="#6258A3">
            <g id="Group-6" transform="translate(135.000000, 600.000000)">
                <path d="M16.1085938,14.6603516 C15.3083984,14.6603516 14.6572266,15.3113281 14.6572266,16.1115234 C14.6572266,16.9119141 15.3083984,17.5630859 16.1085938,17.5630859 C16.9089844,17.5630859 17.5597656,16.9119141 17.5597656,16.1115234 C17.5595703,15.3113281 16.9087891,14.6603516 16.1085938,14.6603516 Z" id="Shape"></path>
                <path d="M8.87539063,7.42753906 C8.075,7.42753906 7.42382812,8.07871094 7.42382812,8.87910156 C7.42402344,9.67910156 8.07519531,10.3300781 8.87539063,10.3300781 C9.67558594,10.3300781 10.3263672,9.67910156 10.3263672,8.87910156 C10.3263672,8.07871094 9.67558594,7.42753906 8.87539063,7.42753906 Z" id="Shape"></path>
                <path d="M12.5005859,0 C5.6078125,0 0.0005859375,5.60722656 0.0005859375,12.5 C0.0005859375,19.3923828 5.6078125,25 12.5005859,25 C19.3925781,25 24.9994141,19.3923828 24.9994141,12.5 C24.9994141,5.60722656 19.3925781,0 12.5005859,0 Z M8.87539062,5.86386719 C10.5375,5.86386719 11.8902344,7.21621094 11.8902344,8.87910156 C11.8902344,10.5412109 10.5375,11.8939453 8.87539062,11.8939453 C7.21269531,11.8939453 5.86015625,10.5412109 5.86015625,8.87910156 C5.86015625,7.21621094 7.21289062,5.86386719 8.87539062,5.86386719 Z M7.95878906,18.146875 C7.80644531,18.2996094 7.60585937,18.3761719 7.40605469,18.3761719 C7.20605469,18.3761719 7.00585937,18.2996094 6.853125,18.146875 C6.54785156,17.8416016 6.54785156,17.3462891 6.853125,17.0414063 L17.0412109,6.85292969 C17.3462891,6.54765625 17.8414062,6.54765625 18.146875,6.85292969 C18.4521484,7.15820313 18.4521484,7.65351562 18.146875,7.95859375 L7.95878906,18.146875 Z M16.1085937,19.1265625 C14.4460937,19.1265625 13.0933594,17.7740234 13.0933594,16.1113281 C13.0933594,14.4492187 14.4460937,13.0964844 16.1085937,13.0964844 C17.7708984,13.0964844 19.1234375,14.4492188 19.1234375,16.1113281 C19.1232422,17.7740234 17.7707031,19.1265625 16.1085937,19.1265625 Z" id="Shape"></path>
            </g>
        </g>
    </g>
</svg>