<svg xmlns="http://www.w3.org/2000/svg" width="27.686" height="26.97" viewBox="0 0 27.686 26.97"><g transform="translate(-551 -3415)"><g transform="translate(551 3415)"><g transform="translate(0 0)"><path d="M24.776,17.639V3.92a.523.523,0,0,0-1.046,0V12.9H21.644a.523.523,0,1,0,0,1.046h2.08V17.3a5.076,5.076,0,0,0-.92-.09,4.883,4.883,0,0,0-4.876,4.876,4.821,4.821,0,0,0,.283,1.623H8.748V21.175a.523.523,0,1,0-1.046,0v2.537H1.046V1.046H7.7V17.411a.523.523,0,1,0,1.046,0V13.948h9.331a.523.523,0,1,0,0-1.046H8.748V1.046H23.73V2.17a.523.523,0,0,0,1.046,0V.523A.523.523,0,0,0,24.253,0H.523A.523.523,0,0,0,0,.523V24.247a.523.523,0,0,0,.523.523H18.734a4.874,4.874,0,1,0,6.042-7.13ZM22.81,25.954A3.854,3.854,0,1,1,26.664,22.1,3.858,3.858,0,0,1,22.81,25.954Z"/><path d="M345.9,329.944h-1.232v-1.232a.511.511,0,1,0-1.022,0v1.232h-1.232a.511.511,0,1,0,0,1.022h1.232V332.2a.511.511,0,1,0,1.022,0v-1.232H345.9a.511.511,0,1,0,0-1.022Z" transform="translate(-321.345 -308.468)"/></g></g></g></svg>