<svg width="154" height="39" viewBox="0 0 154 39" fill="none" xmlns="http://www.w3.org/2000/svg">
<path d="M140.542 38.7197L138.527 33.5947H124.661L122.609 38.7197H110.51L126.206 0.282215H137.38L153.127 38.7197H140.536H140.542ZM134.387 22.7771L131.607 13.7123L128.773 22.7771L128.2 24.5247H134.979L134.387 22.7771ZM101.58 25.9072H95.1689L95.1484 38.7197H83.6081V0.282215H101.58C103.392 0.217364 105.199 0.512378 106.897 1.15017C108.594 1.78797 110.147 2.75588 111.468 3.99784C112.794 5.11309 113.86 6.50589 114.588 8.07779C115.317 9.6497 115.692 11.3624 115.685 13.0947C115.684 14.7847 115.305 16.453 114.575 17.9775C113.845 19.5021 112.784 20.8443 111.468 21.9059C110.165 23.1909 108.621 24.206 106.924 24.8927C105.227 25.5794 103.411 25.9241 101.58 25.9072ZM100.298 9.25097H95.1484V16.9385H100.298C100.807 16.9533 101.314 16.8641 101.787 16.6762C102.261 16.4883 102.691 16.2057 103.051 15.8458C103.411 15.4858 103.694 15.0562 103.882 14.5831C104.07 14.11 104.16 13.6035 104.145 13.0947C104.155 12.5872 104.062 12.0828 103.873 11.6119C103.683 11.141 103.4 10.7132 103.041 10.3543C102.681 9.9953 102.253 9.71255 101.782 9.52296C101.311 9.33337 100.806 9.24086 100.298 9.25097ZM68.2415 38.7197L55.4189 22.0635L55.3984 38.7197H43.8581V0.282215H55.3984L55.4189 15.6572L65.677 0.282215H79.7818L66.9592 18.2197L82.3463 38.7197H68.2415ZM28.2517 33.5947H14.3867L12.335 38.7197H0.234375L15.9318 0.282215H27.1054L42.8528 38.7197H30.2674L28.2517 33.5947ZM24.1075 22.7746L21.3275 13.7097L18.4899 22.7746L17.9206 24.5235H24.6999L24.1075 22.7746Z" fill="#918F8F"/>
</svg>
