<svg xmlns="http://www.w3.org/2000/svg" xmlns:xlink="http://www.w3.org/1999/xlink" width="21" height="21" viewBox="0 0 21 21">
  <defs>
    <clipPath id="clip-Artboard_2">
      <rect width="21" height="21"/>
    </clipPath>
  </defs>
  <g id="Artboard_2" data-name="Artboard – 2" clip-path="url(#clip-Artboard_2)">
    <g id="Group_3291" data-name="Group 3291" transform="translate(0.453 0.524)">
      <g id="Path_7" data-name="Path 7" transform="translate(20) rotate(90)" fill="none">
        <path d="M10,0A10,10,0,1,1,0,10,10,10,0,0,1,10,0Z" stroke="none"/>
        <path d="M 10.00000095367432 1.500001907348633 C 5.313080787658691 1.500001907348633 1.500001907348633 5.313080787658691 1.500001907348633 10.00000095367432 C 1.500001907348633 14.68692111968994 5.313080787658691 18.5 10.00000095367432 18.5 C 14.68692111968994 18.5 18.5 14.68692111968994 18.5 10.00000095367432 C 18.5 5.313080787658691 14.68692111968994 1.500001907348633 10.00000095367432 1.500001907348633 M 10.00000095367432 1.9073486328125e-06 C 15.52285099029541 1.9073486328125e-06 20 4.477150917053223 20 10.00000095367432 C 20 15.52285099029541 15.52285099029541 20 10.00000095367432 20 C 4.477150917053223 20 1.9073486328125e-06 15.52285099029541 1.9073486328125e-06 10.00000095367432 C 1.9073486328125e-06 4.477150917053223 4.477150917053223 1.9073486328125e-06 10.00000095367432 1.9073486328125e-06 Z" stroke="none"/>
      </g>
      <g id="Group_1642" data-name="Group 1642" transform="translate(7.236 5.719)">
        <g id="Group_1641" data-name="Group 1641" transform="translate(5.504 5.4) rotate(90)">
          <g id="chevron-down" transform="translate(0 5.504) rotate(-90)">
            <path id="Path" d="M0,0,2.752,2.752,5.5,0" fill="none" stroke="#000" stroke-linecap="round" stroke-linejoin="round" stroke-miterlimit="10" stroke-width="1.5"/>
          </g>
        </g>
        <line id="Line_2" data-name="Line 2" y2="7.826" transform="translate(2.739)" fill="none" stroke="#000" stroke-linecap="round" stroke-width="1.5"/>
      </g>
    </g>
  </g>
</svg>
