<svg xmlns="http://www.w3.org/2000/svg" xmlns:xlink="http://www.w3.org/1999/xlink" width="23" height="19" viewBox="0 0 23 19">
  <defs>
    <clipPath id="clip-Artboard_1">
      <rect width="23" height="19"/>
    </clipPath>
  </defs>
  <g id="Artboard_1" data-name="Artboard – 1" clip-path="url(#clip-Artboard_1)">
    <g id="Group_3297" data-name="Group 3297" transform="translate(-998.455 -107.542)">
      <path id="Path_381" data-name="Path 381" d="M1010.748,125.338l.188-.181c.268-.257.545-.523.786-.8a1.524,1.524,0,0,1,1.3-.562c.819.02,1.654.016,2.462.012q.562,0,1.124,0h.008a3.844,3.844,0,0,0,2.859-1.119,3.738,3.738,0,0,0-1.194-6.1,6.375,6.375,0,0,0-2.68-.321c-.224,0-.454.01-.683.009-1.936-.008-3.9-.008-5.807-.007s-3.9,0-5.851-.007a2.178,2.178,0,0,1-1.563-.642,1.969,1.969,0,0,1-.57-1.418,2.118,2.118,0,0,1,2.159-2.049c1.106-.009,2.23-.008,3.318-.007q1.152,0,2.3,0c.164,0,.385,0,.488.173a.512.512,0,0,1-.072.5.809.809,0,0,0,.133,1.053.938.938,0,0,0,1.167-.074c.751-.715,1.355-1.321,1.9-1.906a.951.951,0,0,0-.074-1.349q-.462-.452-.928-.9-.414-.4-.827-.8a.878.878,0,0,0-1.386.084.873.873,0,0,0,.138,1.1l.138.186-.2.117a.927.927,0,0,1-.565.111c-.032,0-.064,0-.1,0-.616,0-1.232,0-1.849,0-1.15,0-2.34,0-3.509.015a3.741,3.741,0,0,0-3.645,2.4,3.6,3.6,0,0,0,.044,2.807,3.692,3.692,0,0,0,2.046,2.03,6.972,6.972,0,0,0,2.687.3c.225,0,.459-.009.689-.008,3.053.014,6.158.009,9.16,0l2.184,0h.008a2.276,2.276,0,0,1,1.766.628,1.926,1.926,0,0,1,.426,2.189,1.993,1.993,0,0,1-1.881,1.3c-.686.015-1.382.013-2.056.011-.606,0-1.233,0-1.848.007a1.389,1.389,0,0,1-1.162-.5c-.3-.345-.623-.678-.938-1l-.05-.051a.985.985,0,0,0-1.286-.189c-.249.185-.49.485-.14,1.172a1.206,1.206,0,0,1,.063.161c.011.033.025.073.043.123l.1.28h-.3l-.368,0c-.245,0-.476,0-.7,0-.593.017-.941.342-.932.868.009.51.345.812.922.829.236.007.473.005.725,0l.365,0h.3l-.1.28c-.021.056-.035.1-.047.13a.985.985,0,0,1-.055.136c-.281.54-.237.951.129,1.223A1,1,0,0,0,1010.748,125.338Z"/>
      <path id="Path_382" data-name="Path 382" d="M1151.59,108.562h-.015a2.846,2.846,0,0,0-2.024.817,2.7,2.7,0,0,0-.8,1.924,2.774,2.774,0,0,0,2.724,2.746h.011a2.864,2.864,0,0,0,2.048-.8,2.753,2.753,0,0,0,.78-1.973A2.7,2.7,0,0,0,1151.59,108.562Z" transform="translate(-133.752 -0.018)"/>
      <path id="Path_383" data-name="Path 383" d="M1002.489,220.506h-.036a2.7,2.7,0,0,0-2.83,2.708,2.754,2.754,0,0,0,.776,1.981,2.714,2.714,0,0,0,1.938.8h.017a2.767,2.767,0,0,0,2.832-2.733,2.938,2.938,0,0,0-.948-2.084A2.314,2.314,0,0,0,1002.489,220.506Z" transform="translate(-0.15 -100.302)"/>
    </g>
  </g>
</svg>
