<svg xmlns="http://www.w3.org/2000/svg" width="29" height="29" viewBox="0 0 29 29"><defs><style>.a{fill:#9591e4;}.b{fill:#302c89;}.c{fill:#fff;}</style></defs><path class="a" d="M14.5,0A14.5,14.5,0,1,1,0,14.5,14.5,14.5,0,0,1,14.5,0Z"/><g transform="translate(5.275 6.508)"><path class="b" d="M93.126,128.939l9.826,1.724V114.906l-9.826,1.724Z" transform="translate(-93.126 -114.906)"/><path class="b" d="M279.105,233.585a2.139,2.139,0,0,0,3.483-1.665v-5.145H279.1v6.81Z" transform="translate(-268.571 -220.439)"/><path class="b" d="M280.45,156.014a1.7,1.7,0,1,0-1.344-2.741v2.082A1.7,1.7,0,0,0,280.45,156.014Z" transform="translate(-268.572 -150.478)"/><path class="b" d="M356.725,246.237H353.03v4.544a2.116,2.116,0,0,0,3.729-1.392Z" transform="translate(-338.309 -238.798)"/><circle class="b" cx="1.682" cy="1.682" r="1.682" transform="translate(14.618 3.284)"/></g><path class="c" d="M150.52,208.243h-1.466v4.283h-.885v-4.283H146.7v-.88h3.816v.88Z" transform="translate(-138.395 -195.618)"/></svg>