<svg xmlns="http://www.w3.org/2000/svg" viewBox="0 0 200.61 30.7"><defs><style>.cls-1{fill:#525252;}.cls-2{fill:#09ccff;}</style></defs><title>Ресурс 24</title><g id="Слой_2" data-name="Слой 2"><g id="Слой_1-2" data-name="Слой 1"><path class="cls-1" d="M116.19,8.77h11.56v2.58h-.84A1.46,1.46,0,0,0,125.45,10h-2v11.9h-2.88V10h-2.08A1.43,1.43,0,0,0,117,11.35h-.84Z"/><path class="cls-1" d="M140.33,8.77h2.09V21.92h-2.78V12.73l-6.89,9.19h-2.09V11.2a1.66,1.66,0,0,0-1.32-1.74V8.77h4.12V18Z"/><path class="cls-1" d="M80,21.92H76.33l-2.57-4.87s-.77-1.46-1.6-1.46h-1v6.33H68.24V11.2a1.58,1.58,0,0,0-1.39-1.66V8.77h4.24v5.5h1.26a2.23,2.23,0,0,0,1.52-1.19c2.24-3.62,1.95-4.31,2.93-4.31h2.78v.9c-2,0-2.5,4-4.38,5.23.91.34,1.25,1.18,3.27,4.87,0,0,.47,1.25,1.46,1.25Z"/><path class="cls-1" d="M157.66,19.07a7.06,7.06,0,0,1-5.84,3.06c-3.48,0-6.82-2.71-6.82-6.27V15.1a6.55,6.55,0,0,1,6.82-6.54,6.71,6.71,0,0,1,6.68,6.75H148.41v2.16a3.51,3.51,0,0,0,3.76,3.41,5.62,5.62,0,0,0,4.31-1.95ZM148.41,14h6.82v-.7a3.41,3.41,0,1,0-6.82,0Z"/><path class="cls-1" d="M92.42,17.4a3.23,3.23,0,0,1-3,3.35h-.28A3.27,3.27,0,0,1,86,18.31V12.69a3.3,3.3,0,0,1,3.2-2.79h.56s2.64.14,2.71,3.35ZM89.78,8.56A4.82,4.82,0,0,0,86,10.23V8.77h-4.2v.77a1.61,1.61,0,0,1,1.33,1.66V27.91H86V20.53a4.72,4.72,0,0,0,3.62,1.6,6.23,6.23,0,0,0,6.19-6.47v-.84c0-3.83-2.36-6.26-6-6.26"/><path class="cls-1" d="M50,17.32A3.49,3.49,0,0,1,49,19.86a3.56,3.56,0,0,1-2.56,1,3.48,3.48,0,0,1-3.55-3.56V13.16a3.59,3.59,0,0,1,7.16.07ZM46.42,8.56a6.57,6.57,0,0,0-7,6.33V16c0,2.93,2.87,6.13,7,6.13,3.83,0,7-2.87,7-6.19V15c0-3.35-2.65-6.47-7-6.47"/><path class="cls-1" d="M114.25,8.77h-4.17v.77a1.67,1.67,0,0,1,1.38,1.73V21.92h2.79Z"/><path class="cls-1" d="M102,20.6V15.1h2.43a2.41,2.41,0,0,1,2.37,2.58v.55a2.5,2.5,0,0,1-2.44,2.37Zm0-6.82v-5H97.82v.77a1.51,1.51,0,0,1,1.25,1.67V21.92h6.48c2.5,0,4.3-1.53,4.3-3.69v-.62c0-2.37-1.73-3.83-4.45-3.83Z"/><path class="cls-1" d="M53.93,8.77H65.48v2.58h-.83A1.48,1.48,0,0,0,63.18,10h-2v11.9H58.3V10H56.21a1.44,1.44,0,0,0-1.46,1.33h-.84Z"/><path class="cls-2" d="M25.75,16.11a9.78,9.78,0,0,1-5.07,8.74l-.72.34a1.79,1.79,0,0,1-.75.17,1.22,1.22,0,0,1-1.12-.58,1.45,1.45,0,0,1-.17-1,1.38,1.38,0,0,1,.64-.87,5.24,5.24,0,0,0,3-4.78V12.62a5.23,5.23,0,0,0-3-4.78,1.35,1.35,0,0,1-.66-.9,1.43,1.43,0,0,1,.16-1,1.25,1.25,0,0,1,1.11-.59,1.79,1.79,0,0,1,.75.17l.7.33a9.82,9.82,0,0,1,5.1,8.78ZM12.12,22.87a1.37,1.37,0,0,1,.65.87,1.4,1.4,0,0,1-.17,1,1.21,1.21,0,0,1-1.1.58,1.75,1.75,0,0,1-.75-.17L10,24.85A9.78,9.78,0,0,1,5,16.11V14.6A9.79,9.79,0,0,1,10,5.83s.71-.33.71-.33a1.62,1.62,0,0,1,.74-.18,1.26,1.26,0,0,1,1.11.59,1.4,1.4,0,0,1,.17,1,1.36,1.36,0,0,1-.67.88,5.22,5.22,0,0,0-3,4.79v5.44a5.26,5.26,0,0,0,3,4.79M15.35,0A15.35,15.35,0,1,0,30.7,15.35,15.35,15.35,0,0,0,15.35,0"/><path class="cls-1" d="M178.19,18.64h-1.6V12.13h3.35l.13.81H177.5v1.83h.83c1.38,0,2.21.67,2.21,1.87s-1,2-2.35,2m.07-3.07h-.76v2.3h.73c.88,0,1.41-.37,1.41-1.18s-.48-1.12-1.35-1.12"/><path class="cls-1" d="M184,12.11h.89l2.5,6.4-.87.19-.76-2H183.1l-.72,1.95h-.93Zm-.61,3.79h2.07l-1-2.74Z"/><polygon class="cls-1" points="192.96 18.63 192.96 15.63 189.68 15.63 189.68 18.63 188.79 18.63 188.79 12.13 189.68 12.13 189.68 14.83 192.96 14.83 192.96 12.13 193.85 12.13 193.85 18.63 192.96 18.63"/><polygon class="cls-1" points="199.32 12.13 196.63 15.05 196.63 12.13 195.74 12.13 195.74 18.63 196.63 18.63 196.63 15.34 199.63 18.7 200.61 18.49 197.58 15.19 200.45 12.13 199.32 12.13"/><rect class="cls-1" x="167.27" width="0.55" height="30.69"/></g></g></svg>