<svg xmlns="http://www.w3.org/2000/svg" viewBox="0 0 119.52 28.93"><defs><style>.cls-1{fill:#00326d;}.cls-2{fill:none;stroke:#00326d;stroke-miterlimit:10;}.cls-3{fill:#fff;}.cls-4{fill:#ff1131;}.cls-5{fill:#02326d;}</style></defs><title>Ресурс 14</title><g id="Слой_2" data-name="Слой 2"><g id="Слой_1-2" data-name="Слой 1"><path class="cls-1" d="M.5,28h0V1A.42.42,0,0,1,.91.57H28a.42.42,0,0,1,.41.43V28a.42.42,0,0,1-.41.42H.91a.45.45,0,0,1-.29-.12A.42.42,0,0,1,.5,28Z"/><path class="cls-2" d="M.5,28h0V1A.42.42,0,0,1,.91.57H28a.42.42,0,0,1,.41.43V28a.42.42,0,0,1-.41.42H.91a.45.45,0,0,1-.29-.12A.42.42,0,0,1,.5,28Z"/><path class="cls-3" d="M12.35,5.7H4.72a.3.3,0,0,1-.24-.15l-.21-.44a.11.11,0,0,1,0-.11.13.13,0,0,1,.1,0H12a.33.33,0,0,1,.14,0,.33.33,0,0,1,.1.11l.21.44a.11.11,0,0,1,0,.11A.13.13,0,0,1,12.35,5.7Zm.7,1.47H5.42A.28.28,0,0,1,5.18,7L5,6.59a.11.11,0,0,1,0-.11.11.11,0,0,1,.1-.05H12.7a.34.34,0,0,1,.14.05.21.21,0,0,1,.1.11l.21.43a.11.11,0,0,1,0,.11A.11.11,0,0,1,13.05,7.17Zm.71,1.49H6.13a.28.28,0,0,1-.24-.16l-.21-.43a.11.11,0,0,1,0-.11.11.11,0,0,1,.1,0h7.63a.23.23,0,0,1,.14,0,.35.35,0,0,1,.1.11l.21.43a.11.11,0,0,1,0,.11A.12.12,0,0,1,13.76,8.66Zm.7,1.48H6.83A.3.3,0,0,1,6.59,10l-.21-.44a.11.11,0,0,1,0-.11.11.11,0,0,1,.1,0h7.63a.33.33,0,0,1,.14,0,.27.27,0,0,1,.1.11l.21.44a.09.09,0,0,1,0,.1A.1.1,0,0,1,14.46,10.14Zm.71,1.48H7.54a.3.3,0,0,1-.24-.15L7.09,11a.11.11,0,0,1,0-.11.13.13,0,0,1,.1,0h7.63a.33.33,0,0,1,.14,0,.35.35,0,0,1,.1.11l.21.44a.09.09,0,0,1,0,.1A.11.11,0,0,1,15.17,11.62Zm.71,1.48H8.25A.3.3,0,0,1,8,13l-.2-.43a.15.15,0,0,1,0-.11.12.12,0,0,1,.1-.05h7.63a.3.3,0,0,1,.25.16L16,13a.14.14,0,0,1,0,.11A.12.12,0,0,1,15.88,13.1Zm.7,1.48H9a.28.28,0,0,1-.24-.15L8.5,14a.11.11,0,0,1,0-.11.11.11,0,0,1,.1-.05h7.63a.34.34,0,0,1,.14.05.24.24,0,0,1,.1.1l.21.44a.11.11,0,0,1,0,.11A.11.11,0,0,1,16.58,14.58Z"/><path class="cls-4" d="M24.21,14.58a1.7,1.7,0,0,0,.71-.14,1.75,1.75,0,0,0,.6-.4,1.86,1.86,0,0,0,.4-.6,1.61,1.61,0,0,0,.14-.71,1.76,1.76,0,0,0-.14-.71,1.84,1.84,0,0,0-1-1,2,2,0,0,0-.71-.14,1.85,1.85,0,1,0,0,3.7Z"/><path class="cls-3" d="M14.29,4.22H2.45a.18.18,0,0,1-.17-.17v-.4a.17.17,0,0,1,.05-.12.13.13,0,0,1,.12,0H14.29a.15.15,0,0,1,.12,0,.17.17,0,0,1,.05.12v.4a.17.17,0,0,1-.17.17Zm4.86,10.36H17.77c-.05,0-.09,0-.1,0a.11.11,0,0,1,0-.11l4.06-8.68a1.28,1.28,0,0,0,0-1.12,1.23,1.23,0,0,0-1-.41h-.93a.18.18,0,0,1-.17-.17v-.4a.15.15,0,0,1,0-.07.1.1,0,0,1,0-.05l0,0H26a.29.29,0,0,1,.09.09.17.17,0,0,1,0,.07v.4a.13.13,0,0,1,0,.06l0,.06a.09.09,0,0,1-.05,0l-.07,0h-.27a2.54,2.54,0,0,0-1.12.21,1.8,1.8,0,0,0-.72.84L19.4,14.43a.29.29,0,0,1-.11.11A.23.23,0,0,1,19.15,14.58Zm-5.1,11a.1.1,0,0,1-.09-.06l-4.82-10a.11.11,0,0,1,0-.11.11.11,0,0,1,.1,0H25.9a.17.17,0,0,1,.17.17v.41a.17.17,0,0,1-.17.17H18.79a.23.23,0,0,0-.14,0,.38.38,0,0,0-.11.11l-4.4,9.25A.1.1,0,0,1,14.05,25.53Z"/><path class="cls-5" d="M55.84,9.31h-1.2a.09.09,0,0,0-.07,0,.16.16,0,0,0,0,.07v2.7H51V9.41a.16.16,0,0,0,0-.07.08.08,0,0,0-.07,0h-1.2a.09.09,0,0,0-.07,0,.25.25,0,0,0,0,.07V16a.13.13,0,0,0,.11.11h1.2A.09.09,0,0,0,51,16,.25.25,0,0,0,51,16V13.2h3.53V16a.13.13,0,0,0,.11.11h1.2a.1.1,0,0,0,.07,0A.16.16,0,0,0,56,16V9.41a.25.25,0,0,0,0-.07A.08.08,0,0,0,55.84,9.31Z"/><path class="cls-5" d="M35.33,13.2v1.32c0,.29,0,.33.05.35s.23.1.39.1H38a.88.88,0,0,0,.66-.18,1,1,0,0,0,.19-.71v0a.86.86,0,0,0-.2-.69A.93.93,0,0,0,38,13.2Zm3.3,2.87H34.86a1,1,0,0,1-.74-.29.93.93,0,0,1-.2-.65v-4.8a1,1,0,0,1,.26-.76,1,1,0,0,1,.74-.26h4.19a.1.1,0,0,1,.11.11v.87a.1.1,0,0,1-.11.11H35.76a.63.63,0,0,0-.34.07.36.36,0,0,0-.09.29V12.1h3.28a1.52,1.52,0,0,1,1.27.52,2.32,2.32,0,0,1,.37,1.47,2.28,2.28,0,0,1-.39,1.52A1.58,1.58,0,0,1,38.63,16.07Zm6.09-5.75c-.1,0-.18.23-.18.23L43.45,13.2H46l-1.09-2.65S44.83,10.32,44.72,10.32Zm3.68,5.75H47.25l0,0s0,0-.05-.05h0l-.7-1.71H43L42.3,16h0a.1.1,0,0,1,0,.05l-.06,0H41.05a.13.13,0,0,1-.11-.12s0,0,0,0v0L43.46,10a1.17,1.17,0,0,1,1.26-.78A1.2,1.2,0,0,1,46,10l2.51,5.9h0a.08.08,0,0,1,0,0,.11.11,0,0,1,0,.08A.12.12,0,0,1,48.4,16.07Z"/><path class="cls-5" d="M63.77,15.88l-3.18-2.71c-.15-.13-.43-.37-.43-.57s.17-.31.35-.48l2.9-2.63a.09.09,0,0,0,0-.07.11.11,0,0,0,0-.08.09.09,0,0,0-.07,0H61.89l-.07,0-2.73,2.49a1.41,1.41,0,0,0-.26.32V9.41a.09.09,0,0,0,0-.07.11.11,0,0,0-.07,0H57.52a.1.1,0,0,0-.1.1V16a.12.12,0,0,0,.1.11h1.21l.07,0a.08.08,0,0,0,0-.07v-2.9a1.67,1.67,0,0,0,.36.43l3,2.55a.09.09,0,0,0,.06,0H63.7l0,0s0,0,0-.05a.15.15,0,0,0,0-.07A.05.05,0,0,0,63.77,15.88Z"/><path class="cls-5" d="M112.52,1.32a1.55,1.55,0,0,0-.15-.74,1,1,0,0,0-1-.5,1.3,1.3,0,0,0-1.2.76l-2.82,4.38c0,.06-.08.13-.12.13h0a.45.45,0,0,1,0-.22V.18a.09.09,0,0,0,0-.07.09.09,0,0,0-.07,0h-1.21a.11.11,0,0,0-.07,0,.09.09,0,0,0,0,.07V5.64c0,.36,0,1.19,1.07,1.19A1.18,1.18,0,0,0,108,6.19l2.89-4.43c0-.1.13-.21.17-.21s0,0,0,.17v5a.1.1,0,0,0,.1.1h1.21a.11.11,0,0,0,.07,0,.09.09,0,0,0,0-.07V1.32Z"/><path class="cls-5" d="M35.61,1.17a.25.25,0,0,0-.2.06.4.4,0,0,0-.08.26V2.87h2.51a.74.74,0,0,0,.68-.23c.06,0,.14-.21.14-.64a.88.88,0,0,0-.21-.68.86.86,0,0,0-.62-.16H35.61ZM35.33,4V5.29a.65.65,0,0,0,.07.36.54.54,0,0,0,.36.09h2.11a1,1,0,0,0,.73-.22,1,1,0,0,0,.17-.65,1.14,1.14,0,0,0-.14-.64A.76.76,0,0,0,38,4ZM38.5,6.83H35a1,1,0,0,1-.83-.28,1,1,0,0,1-.25-.71V1.08a1.12,1.12,0,0,1,.23-.71,1,1,0,0,1,.78-.3h3.43a1.77,1.77,0,0,1,1.3.42A2,2,0,0,1,40.11,2a1.51,1.51,0,0,1-.34,1.12,1,1,0,0,1-.52.33,1.18,1.18,0,0,1,.63.34A1.67,1.67,0,0,1,40.22,5a1.94,1.94,0,0,1-.41,1.43A1.57,1.57,0,0,1,38.5,6.83Zm6.36-5.74a2.12,2.12,0,0,0-1.74.55,2.73,2.73,0,0,0-.44,1.82,2.79,2.79,0,0,0,.44,1.8c.38.47.9.56,1.74.56a2.13,2.13,0,0,0,1.75-.56A2.84,2.84,0,0,0,47,3.46a2.85,2.85,0,0,0-.43-1.82A2.14,2.14,0,0,0,44.86,1.09Zm0,5.82a4.11,4.11,0,0,1-2.81-.72,3.56,3.56,0,0,1-.83-2.73A3.48,3.48,0,0,1,42.06.72,4.07,4.07,0,0,1,44.87,0a4.13,4.13,0,0,1,2.82.72,3.74,3.74,0,0,1,.8,2.74,3.83,3.83,0,0,1-.8,2.73A4.11,4.11,0,0,1,44.87,6.91ZM67.69,1.09A2.12,2.12,0,0,0,66,1.64a2.73,2.73,0,0,0-.44,1.82A2.77,2.77,0,0,0,66,5.26c.38.47.9.56,1.74.56a2.13,2.13,0,0,0,1.75-.56,2.82,2.82,0,0,0,.43-1.8,2.85,2.85,0,0,0-.43-1.82A2.14,2.14,0,0,0,67.69,1.09Zm0,5.82a4.14,4.14,0,0,1-2.82-.72,3.59,3.59,0,0,1-.82-2.73A3.51,3.51,0,0,1,64.88.72,4.11,4.11,0,0,1,67.7,0a4.13,4.13,0,0,1,2.82.72,3.74,3.74,0,0,1,.8,2.74,3.83,3.83,0,0,1-.8,2.73A4.11,4.11,0,0,1,67.7,6.91Z"/><path class="cls-5" d="M96.61,6.83H92.13a1.12,1.12,0,0,1-.83-.22A1,1,0,0,1,91,5.8V1.07a1.09,1.09,0,0,1,.26-.72,1.13,1.13,0,0,1,.87-.27h4.42a.09.09,0,0,1,.07,0,.12.12,0,0,1,0,.08v.87a.11.11,0,0,1,0,.07.1.1,0,0,1-.08,0H92.86a.53.53,0,0,0-.33.08.36.36,0,0,0-.09.29V2.87h3.38l.08,0a.11.11,0,0,1,0,.07v.88a.09.09,0,0,1,0,.07.12.12,0,0,1-.08,0H92.44V5.45a.29.29,0,0,0,.08.22c.07.07.24.07.42.07h3.67a.09.09,0,0,1,.07,0s0,.05,0,.08v.87a.19.19,0,0,1,0,.08A.13.13,0,0,1,96.61,6.83Zm7.69,0h-1.2a.11.11,0,0,1-.11-.1V4H99.46V6.73a.1.1,0,0,1,0,.07.09.09,0,0,1-.07,0h-1.2a.1.1,0,0,1-.1-.1V.18a.09.09,0,0,1,0-.07.09.09,0,0,1,.07,0h1.2a.09.09,0,0,1,.07,0,.1.1,0,0,1,0,.07V2.87H103V.18a.16.16,0,0,1,0-.07l.07,0h1.2s.06,0,.07,0a.13.13,0,0,1,0,.07V6.73a.13.13,0,0,1,0,.07A.09.09,0,0,1,104.3,6.83Zm15.12,0h-4.48a1.11,1.11,0,0,1-.83-.22,1,1,0,0,1-.28-.81V1.07a1.14,1.14,0,0,1,.25-.72A1.15,1.15,0,0,1,115,.08h4.41a.11.11,0,0,1,.08,0,.11.11,0,0,1,0,.08v.87a.08.08,0,0,1,0,.07.09.09,0,0,1-.07,0h-3.72a.48.48,0,0,0-.32.08.34.34,0,0,0-.1.29V2.87h3.39l.07,0a.16.16,0,0,1,0,.07v.88s0,.06,0,.07a.1.1,0,0,1-.07,0h-3.39V5.45a.3.3,0,0,0,.09.22c.07.07.23.07.41.07h3.67a.11.11,0,0,1,.08,0,.13.13,0,0,1,0,.08v.87a.11.11,0,0,1,0,.08A.11.11,0,0,1,119.42,6.83Z"/><path class="cls-5" d="M58.35,1.17a.35.35,0,0,0-.23.07.37.37,0,0,0-.07.28V3.38H60.5a1.07,1.07,0,0,0,.83-.23,1.52,1.52,0,0,0,.21-.89,1.26,1.26,0,0,0-.23-.87,1.14,1.14,0,0,0-.79-.22H58.35Zm-.41,5.66h-1.2a.09.09,0,0,1-.07,0,.16.16,0,0,1,0-.07V1.12a1,1,0,0,1,.26-.78,1.14,1.14,0,0,1,.82-.27H61a2,2,0,0,1,1.42.42A2.38,2.38,0,0,1,63,2.27a2.26,2.26,0,0,1-.63,1.87,1.84,1.84,0,0,1-1.1.33H58.05V6.73a.16.16,0,0,1,0,.07A.08.08,0,0,1,57.94,6.83Z"/><path class="cls-5" d="M81.49,6.65,78.75,3.94a1,1,0,0,1-.35-.59.7.7,0,0,1,.27-.46L81.14.26a.14.14,0,0,0,0-.06s0,0,0-.06a.08.08,0,0,0,0,0,.07.07,0,0,0-.06,0H79.62l-.06,0L77.37,2.57a1.5,1.5,0,0,0-.23.33V.18a.16.16,0,0,0,0-.07s0,0-.07,0h-1.2l-.07,0a.09.09,0,0,0,0,.07V2.89a2.43,2.43,0,0,0-.24-.32L73.3.1l-.06,0H71.8l-.06,0,0,0a.13.13,0,0,0,0,.06.08.08,0,0,0,0,0l2.47,2.64a.71.71,0,0,1,.28.46.93.93,0,0,1-.36.59L71.38,6.65a.05.05,0,0,0,0,0s0,0,0,.06a.09.09,0,0,0,0,0,.07.07,0,0,0,.06,0H73l.06,0,0,0,2.35-2.51a2.67,2.67,0,0,0,.34-.46V6.73a.11.11,0,0,0,0,.07.09.09,0,0,0,.07,0H77a.08.08,0,0,0,.07,0,.1.1,0,0,0,0-.07V3.82a2.13,2.13,0,0,0,.33.46l2.35,2.51,0,0,.06,0h1.51a.09.09,0,0,0,.07,0,.11.11,0,0,0,0-.08s0,0,0,0l0,0Z"/><path class="cls-5" d="M86.14,1.1c-.11,0-.19.22-.19.22L84.17,5.74H88.1L86.32,1.32S86.24,1.1,86.14,1.1ZM90,6.83H82.28a.11.11,0,0,1-.11-.11V5.85a.1.1,0,0,1,.11-.11h.55l2.07-5A1.14,1.14,0,0,1,86.14,0a1.17,1.17,0,0,1,1.24.78l2.07,5H90a.09.09,0,0,1,.07,0,.12.12,0,0,1,0,.08v.87a.12.12,0,0,1,0,.08A.09.09,0,0,1,90,6.83Z"/><path class="cls-5" d="M55,3.74a1.18,1.18,0,0,0-.63-.34,1,1,0,0,0,.52-.33A1.56,1.56,0,0,0,55.21,2,2,2,0,0,0,54.76.49a1.78,1.78,0,0,0-1.3-.41H49.64a.11.11,0,0,0-.08,0,.11.11,0,0,0,0,.08v.87a.11.11,0,0,0,.1.11h3.3a.83.83,0,0,1,.61.16.89.89,0,0,1,.22.68,1,1,0,0,1-.14.64.77.77,0,0,1-.68.22H50.38l-.07,0a.11.11,0,0,0,0,.07v.88a.1.1,0,0,0,.1.11h2.68a.79.79,0,0,1,.67.26,1.14,1.14,0,0,1,.14.64,1,1,0,0,1-.17.65,1,1,0,0,1-.73.22H49.6a.1.1,0,0,0-.11.11v.87a.11.11,0,0,0,.1.11h4a1.57,1.57,0,0,0,1.31-.44A1.94,1.94,0,0,0,55.32,5,1.67,1.67,0,0,0,55,3.74Z"/></g></g></svg>