<svg xmlns="http://www.w3.org/2000/svg" viewBox="0 0 119.86 26"><defs><style>.cls-1{fill:#ffef00;}</style></defs><title>Ресурс 20</title><g id="Слой_2" data-name="Слой 2"><g id="Слой_1-2" data-name="Слой 1"><rect class="cls-1" width="26" height="26"/><path d="M52,2.42A2.84,2.84,0,0,1,49.22.78L50.84.17A1.08,1.08,0,0,0,52,1,1.07,1.07,0,0,0,53.19.17l1.62.61A2.84,2.84,0,0,1,52,2.42Zm40.19,0A2.84,2.84,0,0,1,89.42.78L91,.17A1.07,1.07,0,0,0,92.21,1,1.08,1.08,0,0,0,93.39.17L95,.78A2.84,2.84,0,0,1,92.21,2.42ZM33,2.26V4.61h.91c.91,0,1.36-.4,1.36-1.18s-.44-1.17-1.36-1.17H33Zm0,8.14H30.33V0h4.18a3.3,3.3,0,0,1,3.62,3.42,3.31,3.31,0,0,1-3.62,3.44H33V10.4Zm17.56,0h-2.4V3.34h2.48V7.13l2.48-3.79h2.38V10.4H53V6.52L50.55,10.4Zm40.2,0h-2.4V3.34h2.48V7.13l2.48-3.79h2.38V10.4H93.21V6.52L90.75,10.4Zm24.35,0h-2.48V3.34h2.48V5.83h2.28V3.34h2.48V10.4h-2.48V7.58H115.1V10.4ZM42.62,5.27A1.53,1.53,0,0,0,41,6.87a1.59,1.59,0,0,0,3.18,0A1.53,1.53,0,0,0,42.62,5.27ZM42,10.64a3.62,3.62,0,0,1-3.52-3.78,4,4,0,0,1,1-2.64A3.33,3.33,0,0,1,42,3.1,2.82,2.82,0,0,1,44.13,4V3.33H46.6V10.4H44.13V9.62h0A2.42,2.42,0,0,1,42,10.64ZM82.82,5.27a1.53,1.53,0,0,0-1.59,1.6,1.59,1.59,0,1,0,3.18,0A1.53,1.53,0,0,0,82.82,5.27Zm-.63,5.37a3.62,3.62,0,0,1-3.52-3.78,4,4,0,0,1,1-2.64A3.34,3.34,0,0,1,82.17,3.1,2.82,2.82,0,0,1,84.33,4V3.33H86.8V10.4H84.33V9.62h0A2.41,2.41,0,0,1,82.19,10.64Zm17.65,0a6.32,6.32,0,0,1-3.16-.85l.63-1.67a3.76,3.76,0,0,0,2.15.68c.93,0,1-.53,1-.69,0-.54-.58-.6-1-.6H98.36V6h1.22c.21,0,.84,0,.84-.6,0-.42-.34-.64-1-.64a3.61,3.61,0,0,0-1.84.6l-.67-1.58a6.46,6.46,0,0,1,2.89-.7c.66,0,2.81.14,2.81,2a1.74,1.74,0,0,1-1,1.65v0A1.75,1.75,0,0,1,103,8.49C103,8.71,102.94,10.67,99.84,10.67Zm7.86-5.8A1.4,1.4,0,0,0,106.23,6h2.87A1.4,1.4,0,0,0,107.7,4.87Zm0,5.92a4.26,4.26,0,0,1-2.88-1A3.59,3.59,0,0,1,103.71,7a3.59,3.59,0,0,1,3.87-3.78c2.39,0,3.81,1.47,3.81,3.93v.27h-5.2a1.62,1.62,0,0,0,.39,1.17,1.58,1.58,0,0,0,1.16.4,1.22,1.22,0,0,0,1.18-.65h2.38A3.39,3.39,0,0,1,107.75,10.79ZM62.91,5V8.88h0a1.74,1.74,0,0,0,1.66-2,1.74,1.74,0,0,0-1.65-2h0Zm-2.2,0a1.74,1.74,0,0,0-1.66,2,1.74,1.74,0,0,0,1.66,2h0V5Zm2.35,8.52H60.58v-3h0A4.51,4.51,0,0,1,58,9.82a3.34,3.34,0,0,1-1.37-2.95c0-3.37,2.95-3.63,3.86-3.63h0V.17h2.48V3.24h0C64,3.24,67,3.5,67,6.87s-3,3.64-3.86,3.64h0v3ZM74.07,5V8.88h0a1.74,1.74,0,0,0,1.66-2A1.74,1.74,0,0,0,74.1,5h0Zm-2.2,0a1.74,1.74,0,0,0-1.66,2,1.74,1.74,0,0,0,1.66,2h0V5Zm2.35,8.52H71.74v-3h0a4.51,4.51,0,0,1-2.49-.69,3.34,3.34,0,0,1-1.38-2.95c0-3.37,3-3.63,3.87-3.63h0V.17h2.48V3.24h0c.91,0,3.86.26,3.86,3.63s-2.95,3.64-3.86,3.64h0v3Zm-40.69,8.2-.38,2.21h.73c1.55,0,1.94-.42,2-1.06a1,1,0,0,0-.13-.77c-.22-.26-.7-.38-1.5-.38ZM34.06,26H29.9l1.77-10.4h7.09l-.33,2H34.14l-.33,2.07h1.24a4.4,4.4,0,0,1,2.93.84,2.4,2.4,0,0,1,.79,2.3,3.36,3.36,0,0,1-.85,1.92A5.33,5.33,0,0,1,34.06,26Zm11.11-7.19-1.73,3.31h2.37l-.61-3.31ZM41.26,26h-3l5.93-10.4h3.1L49.67,26h-3l-.41-1.81H42.32L41.26,26Z"/><polygon points="65.53 15.6 62.66 15.6 60.93 26 63.77 26 64.52 21.49 64.55 21.49 67.47 26 71.15 26 67.32 20.52 72.49 15.6 68.97 15.6 64.82 19.89 64.79 19.89 65.53 15.6"/><polygon points="54.53 15.6 53.9 19.47 57.69 19.47 58.32 15.6 61.08 15.6 59.4 26 56.65 26 57.37 21.53 53.58 21.53 52.86 26 50.09 26 51.78 15.6 54.53 15.6"/><path d="M.87.87V25.13H25.13V.87ZM26,26H0V0H26V26Z"/><path d="M13,16,5.53,23.43l-3-3L10,13,8.48,11.44V8.36L7.4,7.28V10l-.94.94L2.67,7.12l-.94.94A6.38,6.38,0,0,1,3.61,3.6,3.27,3.27,0,0,1,8.2,3.31L12,7.09l-1,1,2,2,2-2-1-1L17.8,3.31a3.25,3.25,0,0,1,4.58.29,6.29,6.29,0,0,1,1.88,4.46l-.93-.94-3.79,3.79L18.6,10V7.28L17.52,8.36v3.08L16,13l7.47,7.47-3,3Z"/></g></g></svg>