<svg xmlns="http://www.w3.org/2000/svg" viewBox="0 0 120 26.17"><defs><style>.cls-1{fill:#00447b;}</style></defs><title>Ресурс 13</title><g id="Слой_2" data-name="Слой 2"><g id="Слой_1-2" data-name="Слой 1"><path class="cls-1" d="M12.7.42A12.51,12.51,0,0,0,.42,13.13,12.35,12.35,0,0,0,12.55,25.66h.15A12.43,12.43,0,0,0,24.9,13,12.43,12.43,0,0,0,12.7.42Zm0,25.75a12.45,12.45,0,0,1-9-3.82A13.14,13.14,0,0,1,0,13.13a13.26,13.26,0,0,1,3.72-9.3,12.4,12.4,0,0,1,17.91,0A13.4,13.4,0,0,1,25.41,13a13.28,13.28,0,0,1-3.72,9.3A12.43,12.43,0,0,1,12.7,26.17Z"/><path class="cls-1" d="M18.46,6.77a1.85,1.85,0,0,1-.42.68c.21.09.45.18.69.26l.66.25C19.39,7.42,18.81,7,18.46,6.77Zm-1,1.28a7.46,7.46,0,0,1-1.13.64h-.06c.47.1.89.23,1.17.31h.08c.22.06.58.17.95.26h0c.09,0,.35-.21.73-.59h0a9.63,9.63,0,0,0-1.12-.44h-.05Zm2.79,1.27L20,9.57l-.26.25.13.07h0l.05,0a2,2,0,0,1,.65.41C20.75,9.91,20.66,9.73,20.24,9.32Zm-5.3.1a6.81,6.81,0,0,0-1,.07,34.12,34.12,0,0,0-6,1.27l-.11,0-.07,0c-.85.28-3.12,1-3.45,2a.85.85,0,0,0,.16.8c.12-.16.83-1,3.13-1.69a41.54,41.54,0,0,1,4.88-1.08h.06c1.54-.28,3.13-.57,4.72-1A8.89,8.89,0,0,0,14.94,9.42Zm3.89,1h0a13.69,13.69,0,0,1-2.78.93h0c-.47.12-1.28.27-2.22.45h-.1c-1,.19-2.5.47-4,.81a11.71,11.71,0,0,0-4.4,1.78,4.73,4.73,0,0,0,.81.49h0a6.31,6.31,0,0,1,2.11-.85,27.85,27.85,0,0,1,3.86-.83h0l.59-.09a40.76,40.76,0,0,0,5.93-1.44A5.23,5.23,0,0,0,20,11,3,3,0,0,0,18.83,10.41ZM4.66,15.16a.73.73,0,0,0,.34.76l.08-.07h0a.68.68,0,0,0,.24-.26L5,15.37H5Zm16.09-3.39h0a1.29,1.29,0,0,1-.34.26,8.69,8.69,0,0,1-3.3,1.44c-1.74.45-3.15.7-4.51.95h-.1c-1.13.2-2.29.41-3.52.73a5.11,5.11,0,0,0-1.53.51h0A11.49,11.49,0,0,0,9,16.34c.87-.26,1.35-.37,2.24-.56h0l.84-.19c.52-.07,2.09-.37,2.84-.51l.09,0,.14,0h0l.64-.11c2.14-.46,4.57-1.32,5-2.34a.83.83,0,0,0-.09-.8ZM6.44,16.18a2.15,2.15,0,0,1-.24.18h0a.67.67,0,0,0-.26.24,6.79,6.79,0,0,0,1,.58h0a4.43,4.43,0,0,1,.52-.27h0l0,0,.27-.13-.51-.24H7.22a5.54,5.54,0,0,0-.78-.33Zm-.93,1.18a1.17,1.17,0,0,0,.5.85,1.34,1.34,0,0,1,.06-.12h0a1,1,0,0,1,.2-.29,3.23,3.23,0,0,1-.75-.41Zm7.23,5.36-.71,0a9,9,0,0,1-5.51-2.29,2.24,2.24,0,0,1-.59-1.19,3.14,3.14,0,0,1-1.44-1.35,1.47,1.47,0,0,1-.09-1,.29.29,0,0,1,.09-.25h0c-.33-.24-.67-.5-.75-.75a1.24,1.24,0,0,1,.08-1.44,2,2,0,0,1-.42-.68A2.2,2.2,0,0,1,3.3,13a2.78,2.78,0,0,1,.6-1.27,8.47,8.47,0,0,1,3.47-2A26.72,26.72,0,0,1,10,8.91l1.08-.27c.56-.13,1.15-.22,1.77-.33A20.67,20.67,0,0,0,16,7.62a18.9,18.9,0,0,0-3.26-.29,15.46,15.46,0,0,0-9.11,2.83L4,9.49a14.69,14.69,0,0,1,8.76-2.78,23.66,23.66,0,0,1,4.11.4,1.09,1.09,0,0,0,.6-.76,14,14,0,0,0-5.26-.76c-1.9.08-5.39.74-7.19,2l.51-.77A19.43,19.43,0,0,1,12.7,4.91a14.8,14.8,0,0,1,4.83.68c-.16-.32-.54-.57-1.27-.85a10.27,10.27,0,0,0-4-.72,12,12,0,0,0-5,1.06,8.86,8.86,0,0,1,1.27-.76,12.8,12.8,0,0,1,4.83-.93,7.13,7.13,0,0,1,4.91,1.86,1.51,1.51,0,0,1,.34.76,5.15,5.15,0,0,1,1.86,1.53,1.63,1.63,0,0,1,.09.93,1.64,1.64,0,0,1,.76.76,1.36,1.36,0,0,1,.26.76v.17a1.22,1.22,0,0,1-.26.93,1.33,1.33,0,0,1,.59.85A2.17,2.17,0,0,1,21,14a9.34,9.34,0,0,1-3.55,1.78c-1.79.48-3.41.74-4.83,1l-1.7.29H11a14.66,14.66,0,0,0,3.6.42,16.33,16.33,0,0,0,7.11-1.87.1.1,0,0,1,0,0c0,.07-.09.25-.16.39a16.4,16.4,0,0,1-7.55,2h-.33a17.31,17.31,0,0,1-4.4-.76A6.75,6.75,0,0,0,8,17.7a13.88,13.88,0,0,0,5.42,1.35,5.8,5.8,0,0,0,.74,0,21,21,0,0,0,6.63-1.31,1.28,1.28,0,0,0-.13.21.64.64,0,0,1-.13.22,15.5,15.5,0,0,1-5.42,1.44c-.33,0-.69,0-1.07,0a19.6,19.6,0,0,1-3.41-.29,12.88,12.88,0,0,1-3.31-1.18,1.45,1.45,0,0,0-.34.59,13.91,13.91,0,0,0,6.86,1.84,18.47,18.47,0,0,0,5.68-1l-.43.42a15,15,0,0,1-5.76,1.23,12.66,12.66,0,0,1-5.92-1.48.35.35,0,0,0-.17-.09A.45.45,0,0,1,7,19.65a8.29,8.29,0,0,0,5.08,2.45c.31,0,.63,0,1,0a12.6,12.6,0,0,0,4.2-.72l-.77.42A7.78,7.78,0,0,1,12.74,22.72Z"/><path class="cls-1" d="M41.33,10.84h0l-.43,3.47h.93Zm-1.19,8H37.52l2.2-11.43h3.22L45.22,18.8H42.6l-.34-1.95H40.48l-.34,1.95Z"/><path class="cls-1" d="M47.59,11.77a1.12,1.12,0,0,0,1.19-1.1,1,1,0,0,0-1.1-1.1,3.68,3.68,0,0,0-1.44.34V7.45a7.62,7.62,0,0,1,2.29-.34,2.88,2.88,0,0,1,3,3.05A2.9,2.9,0,0,1,50,12.87V13a2.64,2.64,0,0,1,1.78,2.71,3.13,3.13,0,0,1-3.3,3.38A4.65,4.65,0,0,1,46,18.46l.09-2.37a3.48,3.48,0,0,0,1.69.34A1.09,1.09,0,0,0,49,15.33c0-.68-.42-1.1-1.27-1.1h-1V11.77Z"/><polygon class="cls-1" points="52.84 7.37 59.87 7.37 59.87 18.8 57.33 18.8 57.33 10.08 55.47 10.08 55.47 18.8 52.84 18.8 52.84 7.37"/><path class="cls-1" d="M63.94,9.91v2.62h.59c.4,0,.93-.14.93-1.35,0-.87-.29-1.27-.93-1.27Zm0,8.89H61.31V7.28h3.47c2.41,0,3.31,2.34,3.31,3.81s-.7,3.9-3.31,3.9h-.84V18.8Z"/><path class="cls-1" d="M72.91,9.91c-.86,0-1.35,1.14-1.35,3.13s.46,3.13,1.35,3.13,1.36-1.05,1.36-3.13S73.83,9.91,72.91,9.91Zm0,9.06a3.44,3.44,0,0,1-3.17-1.85A8.49,8.49,0,0,1,68.85,13,8.43,8.43,0,0,1,69.74,9a3.64,3.64,0,0,1,6.35,0A8.43,8.43,0,0,1,77,13a8.49,8.49,0,0,1-.89,4.08A3.44,3.44,0,0,1,72.91,19Z"/><path class="cls-1" d="M90.7,13.89v2.62H91a1.27,1.27,0,0,0,1.1-1.44c0-1.18-.77-1.18-1.1-1.18Zm.51,4.91h-3V7.37h5.93v2.71H90.7V11.6h.42a4.1,4.1,0,0,1,2.32.63,3.23,3.23,0,0,1,1.24,2.84A3.36,3.36,0,0,1,91.21,18.8Z"/><polygon class="cls-1" points="103.99 7.37 106.53 7.37 106.53 11.52 108.31 11.52 108.31 7.37 110.85 7.37 110.85 18.8 108.31 18.8 108.31 14.23 106.53 14.23 106.53 18.8 103.99 18.8 103.99 7.37"/><polygon class="cls-1" points="112.55 7.37 115 7.37 115 11.52 115.6 11.52 117.04 7.37 119.75 7.37 117.8 12.79 120 18.8 117.04 18.8 115.6 14.23 115 14.23 115 18.8 112.55 18.8 112.55 7.37"/><polygon class="cls-1" points="32.52 7.37 37.77 7.37 37.77 10.25 35.15 10.25 35.15 18.8 32.52 18.8 32.52 7.37"/><polygon class="cls-1" points="78.25 7.37 80.37 7.37 82.31 10.08 84.26 7.37 86.46 7.37 86.46 18.8 83.92 18.8 83.92 11.86 82.31 13.8 80.79 11.86 80.79 18.8 78.25 18.8 78.25 7.37"/><path class="cls-1" d="M99.08,10.84h0l-.51,3.47h1l-.51-3.47Zm-1.27,8.05H95.19l2.2-11.43h3.3l2.2,11.43h-2.62l-.34-1.94H98.15l-.34,1.94Z"/></g></g></svg>