<svg width="118" height="33" viewBox="0 0 118 33" fill="none" xmlns="http://www.w3.org/2000/svg">
<path d="M28.9083 6.35498C29.6749 7.35944 30.3239 8.4507 30.8421 9.60685L16.1419 20.589L9.99829 16.686V11.9905L16.1419 15.8935L28.9083 6.35498Z" fill="#21A038"/>
<path d="M3.72827 16.3545C3.72827 16.1438 3.73334 15.9345 3.74348 15.7264L0.0202772 15.5415C0.00760464 15.8112 4.49931e-06 16.0835 4.49931e-06 16.3583C-0.00157962 18.5055 0.415154 20.6318 1.22631 22.6153C2.03746 24.5989 3.22706 26.4006 4.72687 27.9171L7.36783 25.2419C6.21333 24.0766 5.29746 22.6915 4.67286 21.1663C4.04826 19.6411 3.72725 18.0058 3.72827 16.3545Z" fill="url(#paint0_linear)"/>
<path d="M16.1385 3.77735C16.3463 3.77735 16.5528 3.78506 16.7581 3.79533L16.9444 0.0207408C16.6775 0.00789774 16.4088 0.00147697 16.1385 0.00147697C14.0188 -0.00114271 11.9196 0.42059 9.96126 1.24246C8.00291 2.06433 6.22405 3.27015 4.72681 4.79068L7.36777 7.46718C8.51766 6.29676 9.8845 5.36823 11.3897 4.735C12.8949 4.10177 14.5087 3.77631 16.1385 3.77735Z" fill="url(#paint1_linear)"/>
<path d="M16.1385 28.9317C15.9307 28.9317 15.7241 28.9317 15.5176 28.915L15.3313 32.6883C15.5991 32.702 15.8682 32.7089 16.1385 32.7089C18.2573 32.7111 20.3555 32.2891 22.3128 31.467C24.2701 30.6449 26.0478 29.4389 27.5439 27.9184L24.908 25.2432C23.7579 26.413 22.3912 27.341 20.8863 27.974C19.3814 28.607 17.7679 28.9325 16.1385 28.9317Z" fill="url(#paint2_linear)"/>
<path d="M23.1339 5.97207L26.2716 3.6282C23.4037 1.27465 19.8238 -0.0065332 16.1335 2.50536e-05V3.77718C18.6324 3.77404 21.0733 4.53938 23.1339 5.97207Z" fill="url(#paint3_linear)"/>
<path d="M32.2759 16.3546C32.2779 15.372 32.1931 14.3911 32.0224 13.4238L28.5489 16.0181C28.5489 16.1299 28.5489 16.2416 28.5489 16.3546C28.5498 18.1119 28.1863 19.8498 27.4821 21.4556C26.7778 23.0614 25.7484 24.4993 24.4607 25.6761L26.9661 28.4824C28.6402 26.9507 29.978 25.0796 30.8927 22.9904C31.8075 20.9011 32.2787 18.6403 32.2759 16.3546Z" fill="#21A038"/>
<path d="M16.1386 28.9318C14.4045 28.9324 12.6896 28.5639 11.1049 27.8502C9.52028 27.1365 8.10119 26.0934 6.93956 24.7886L4.17188 27.3264C5.68303 29.0233 7.52923 30.3793 9.59076 31.3066C11.6523 32.2338 13.8831 32.7116 16.1386 32.7089V28.9318Z" fill="url(#paint4_linear)"/>
<path d="M7.81645 7.03278L5.31235 4.22656C3.63776 5.75794 2.29948 7.62894 1.3843 9.71822C0.469132 11.8075 -0.00249507 14.0684 9.92661e-06 16.3543H3.72828C3.72751 14.5971 4.09104 12.8592 4.79529 11.2534C5.49955 9.64763 6.52883 8.20969 7.81645 7.03278Z" fill="url(#paint5_linear)"/>
<path d="M93.1298 9.3527L97.7473 5.94409H82.2935V26.4269H97.7473V23.0183H86.7031V17.7716H96.1243V14.363H86.7031V9.3527H93.1298Z" fill="#21A038"/>
<path d="M71.8951 13.9237H66.5299V9.35159H75.0926L79.7073 5.93262H62.1229V26.4154H71.3276C76.4882 26.4154 79.4499 24.0718 79.4499 19.9846C79.4499 16.0745 76.7673 13.9237 71.8951 13.9237ZM71.1291 23.0057H66.5299V17.3302H71.1291C73.9203 17.3302 75.229 18.2813 75.229 20.168C75.229 22.0546 73.8365 23.0057 71.1291 23.0057Z" fill="#21A038"/>
<path d="M109.107 5.94116H100.695V26.4239H105.104V20.6215H109.107C114.474 20.6215 117.794 17.7918 117.794 13.2704C117.794 8.74911 114.474 5.94116 109.107 5.94116ZM109.014 17.2103H105.104V9.35237H109.014C111.837 9.35237 113.395 10.7486 113.395 13.2829C113.395 15.8172 111.837 17.2103 109.014 17.2103Z" fill="#21A038"/>
<path d="M55.5064 21.5902C54.3674 22.2082 53.0913 22.5282 51.7962 22.5206C47.9198 22.5206 45.1077 19.7477 45.1077 15.9294C45.1077 12.111 47.9198 9.33209 51.7962 9.33209C53.1941 9.3083 54.563 9.73303 55.7029 10.5443L58.7871 8.2684L58.5785 8.11991C56.7794 6.53499 54.3755 5.69556 51.6239 5.69556C48.6394 5.69556 45.9332 6.70166 44.001 8.53205C43.024 9.47449 42.2514 10.6086 41.7311 11.8636C41.2109 13.1186 40.9542 14.4675 40.9773 15.8263C40.9566 17.1989 41.2121 18.5616 41.7285 19.8331C42.2449 21.1046 43.0116 22.2587 43.9829 23.2267C45.9241 25.1298 48.6243 26.1783 51.5876 26.1783C54.6839 26.1783 57.3902 25.0964 59.2226 23.1267L56.4619 21.066L55.5064 21.5902Z" fill="#21A038"/>
<defs>
<linearGradient id="paint0_linear" x1="5.48089" y1="27.4458" x2="1.30964" y2="15.5477" gradientUnits="userSpaceOnUse">
<stop offset="0.14" stop-color="#F1E813"/>
<stop offset="0.3" stop-color="#E6E418"/>
<stop offset="0.58" stop-color="#C9DA26"/>
<stop offset="0.89" stop-color="#A2CC39"/>
</linearGradient>
<linearGradient id="paint1_linear" x1="5.7913" y1="5.45852" x2="16.3181" y2="1.50017" gradientUnits="userSpaceOnUse">
<stop offset="0.06" stop-color="#0FA7DF"/>
<stop offset="0.54" stop-color="#0098F8"/>
<stop offset="0.92" stop-color="#0290EA"/>
</linearGradient>
<linearGradient id="paint2_linear" x1="15.0855" y1="30.4292" x2="26.9647" y2="27.7812" gradientUnits="userSpaceOnUse">
<stop offset="0.12" stop-color="#A2CC39"/>
<stop offset="0.28" stop-color="#86C239"/>
<stop offset="0.87" stop-color="#219F38"/>
</linearGradient>
<linearGradient id="paint3_linear" x1="15.358" y1="1.26507" x2="25.5244" y2="4.36073" gradientUnits="userSpaceOnUse">
<stop offset="0.06" stop-color="#0290EA"/>
<stop offset="0.79" stop-color="#0C89CA"/>
</linearGradient>
<linearGradient id="paint4_linear" x1="5.1071" y1="26.8666" x2="16.1833" y2="30.9512" gradientUnits="userSpaceOnUse">
<stop offset="0.13" stop-color="#F1E813"/>
<stop offset="0.3" stop-color="#EAE616"/>
<stop offset="0.53" stop-color="#D8DF1F"/>
<stop offset="0.8" stop-color="#BAD52D"/>
<stop offset="0.98" stop-color="#A2CC39"/>
</linearGradient>
<linearGradient id="paint5_linear" x1="1.38892" y1="16.8115" x2="5.92478" y2="5.16877" gradientUnits="userSpaceOnUse">
<stop offset="0.07" stop-color="#A2CC39"/>
<stop offset="0.26" stop-color="#81C45E"/>
<stop offset="0.92" stop-color="#0FA7DF"/>
</linearGradient>
</defs>
</svg>
