<svg xmlns="http://www.w3.org/2000/svg" viewBox="0 0 119.38 36.54"><defs><style>.cls-1{fill:#203f7f;}</style></defs><title>Ресурс 17</title><g id="Слой_2" data-name="Слой 2"><g id="Слой_1-2" data-name="Слой 1"><path class="cls-1" d="M37.72,30.42H33.4l2-3.47-4.89-8.71h4.38l2.54,5.17,2.54-5.17h4.32L37.72,30.42Zm54.54,0H86.87a5.06,5.06,0,0,1-3.79-1.67,6.23,6.23,0,0,1-1.55-4.26,6.74,6.74,0,0,1,1.55-4.59,5,5,0,0,1,3.79-1.66h5.39v3H88.77c-2,0-3.3.53-3.3,3.15a2.82,2.82,0,0,0,.86,2.41,3.93,3.93,0,0,0,2.44.56h3.49v3Zm18.93-4.73h0v1.89h3.36c.89,0,.89-.71.89-1s0-.88-.89-.88Zm4.06,4.73h-8.06V18.24h11.62v3h-7.62v1.58h4c1.81,0,3,.45,3.66,1.36a4,4,0,0,1,.53,2.36,4.3,4.3,0,0,1-.52,2.44C118.25,30,117,30.42,115.25,30.42ZM48.51,21.27h0v2.59h2.86c.43,0,1.59,0,1.59-1.33s-1.16-1.26-1.59-1.26Zm0,9.15H44.58V18.24h8.19A3.75,3.75,0,0,1,56.38,20a4.89,4.89,0,0,1,.52,2.36A5.64,5.64,0,0,1,56.38,25a3.7,3.7,0,0,1-3.61,1.93H48.51v3.54Zm13.78-8.77L61,25.12h2.54Zm9.78,8.77h-6.6l-1-2.53H60.07l-1,2.53H54.93l5.14-12.18h4.44l4.26,10.1L73,18.24H77.4l5.15,12.18H78.36l-3.11-8.77-3.18,8.77Zm25.78,0H93.09V18.24H97v8.33l4.57-8.33h4.82V30.42h-4V21.83l-4.57,8.59ZM5.52,34.52h0a11.86,11.86,0,0,1-4-4.28A12.36,12.36,0,0,1,0,24.3a11.86,11.86,0,0,1,2.72-7.63A12.23,12.23,0,0,1,9.59,12.5c.31-6.13.25-8.44.25-8.46h1l-.07,8.27a1.88,1.88,0,0,1,.83-.13V0H12.7V12.18h0a1.94,1.94,0,0,1,.88.13L13.52,4h1a80.71,80.71,0,0,0,.32,8.46,12.34,12.34,0,0,1,6.84,4.17,11.82,11.82,0,0,1,2.75,7.63A12.12,12.12,0,0,1,18.8,34.52a1.56,1.56,0,0,1-.11-.12,2.39,2.39,0,0,0-.21-.26,20.61,20.61,0,0,1-3.65-8.22,50.05,50.05,0,0,1-1.11-9.26,12.87,12.87,0,0,0,1.49.25h0a25.79,25.79,0,0,0,6.54,13.64,8.12,8.12,0,0,0-.51-10.86,12,12,0,0,0-5.84-3.47,13.52,13.52,0,0,0-3.16-.38h-.08A14.4,14.4,0,0,0,9,16.22c-4.82,1.23-8.19,5-8.19,9.21a8.78,8.78,0,0,0,1.78,5.12A25.28,25.28,0,0,0,9.08,16.91c.47-.06,1-.12,1.59-.25a49.51,49.51,0,0,1-1.12,9.23A20.46,20.46,0,0,1,5.9,34.08V34a3.28,3.28,0,0,1-.38.5Zm6.67,2A13.73,13.73,0,0,1,8.45,36c.31-.63.57-1.21.8-1.72l0,0c1.84-5,2.29-12.31,2.35-17.61h1.14c.13,5.74.52,13,2.42,17.8a12.6,12.6,0,0,0,.56,1.19h0v0l.19.35A15,15,0,0,1,12.19,36.54Z"/></g></g></svg>