<svg xmlns="http://www.w3.org/2000/svg" viewBox="0 0 118.93 30.11"><defs><style>.cls-1{fill:#31971b;}</style></defs><title>Ресурс 22</title><g id="Слой_2" data-name="Слой 2"><g id="Слой_1-2" data-name="Слой 1"><path class="cls-1" d="M31,13.88a4.81,4.81,0,0,0,1.82,1.23,7,7,0,0,0,2.61.44,11.31,11.31,0,0,0,1.38-.1,4,4,0,0,0,1.13-.29c.34-.1.64-.25.93-.35s.5-.24.69-.34l-.34-.74-.59.29c-.2.1-.4.15-.64.25a3.69,3.69,0,0,1-.79.15,6.45,6.45,0,0,1-1,.05A3.27,3.27,0,0,1,34.35,14a3.42,3.42,0,0,1-1.14-1.13,6,6,0,0,1-.54-1.72A14.3,14.3,0,0,1,32.53,9c0-.59,0-1.23.09-1.87a4.42,4.42,0,0,1,.45-1.67,3.43,3.43,0,0,1,1-1.23,3.17,3.17,0,0,1,1.77-.49,3,3,0,0,1,1.77.54A2.57,2.57,0,0,1,38.53,6h.79V3.54l-.79-.29a5.08,5.08,0,0,0-.94-.2c-.34,0-.64,0-1-.1S36,2.9,35.77,2.9A7.58,7.58,0,0,0,33,3.35a5,5,0,0,0-1.87,1.28,5.26,5.26,0,0,0-1.08,2,9.18,9.18,0,0,0-.35,2.71,8.17,8.17,0,0,0,.35,2.56A3.9,3.9,0,0,0,31,13.88Z"/><path class="cls-1" d="M66.48,3.84a1.58,1.58,0,0,0-.34,0l-.2,0a.39.39,0,0,0-.3.1.22.22,0,0,0-.1.19.63.63,0,0,0-.05.3V9.69h1.24a1.67,1.67,0,0,0,1.57-.83,5.13,5.13,0,0,0,.44-2.36,4.58,4.58,0,0,0-.15-1.28,2.66,2.66,0,0,0-.49-.84,2,2,0,0,0-.74-.44h0A4.91,4.91,0,0,0,66.48,3.84Zm-.3,11.37h-4v-.4h0a.6.6,0,0,0,.23-.05.46.46,0,0,0,.29-.14.3.3,0,0,0,.15-.3,1.36,1.36,0,0,0,0-.49V4.48a2,2,0,0,0,0-.28v0a1.37,1.37,0,0,1,0-.19.74.74,0,0,0-.15-.3.81.81,0,0,0-.3-.15.54.54,0,0,1-.18,0h0l0,0V3.1H67c.56,0,1.13,0,1.67.1a3.26,3.26,0,0,1,1.43.44,3.06,3.06,0,0,1,1,1.08,4.86,4.86,0,0,1,.34,1.88,4.67,4.67,0,0,1-.39,2,2.74,2.74,0,0,1-1,1.18,4.61,4.61,0,0,1-1.52.54,10.9,10.9,0,0,1-1.82.15H65.45v3.4a2.16,2.16,0,0,0,0,.28h0a1.36,1.36,0,0,1,0,.2.53.53,0,0,0,.45.44.34.34,0,0,1,.18,0h.06v.35Zm9.94-.94a.89.89,0,0,0,.39.19h0l.31,0h.06l.32,0a6.24,6.24,0,0,0,.88-.09h0a2.93,2.93,0,0,0,.74-.45,2.29,2.29,0,0,0,.54-1,5.37,5.37,0,0,0,.2-1.72A3.84,3.84,0,0,0,79,9a2.45,2.45,0,0,0-2-.73h-1v5.12a3.25,3.25,0,0,0,0,.33v0h0v0a1.91,1.91,0,0,1,0,.2.4.4,0,0,0,0,.19.64.64,0,0,0,.11.16Zm1,1H72.53v-.39h0a.6.6,0,0,0,.23,0,.42.42,0,0,0,.29-.15.28.28,0,0,0,.15-.29,1.36,1.36,0,0,0,0-.49V4.48a1.12,1.12,0,0,0,0-.27h0a1.49,1.49,0,0,1,0-.21.81.81,0,0,0-.15-.3.84.84,0,0,0-.29-.15.68.68,0,0,1-.19,0h0l0,0V3.1h9.06V5.81H81a5.34,5.34,0,0,0-.32-1l0-.08a1.46,1.46,0,0,0-.44-.59,1.33,1.33,0,0,0-.69-.24,7.48,7.48,0,0,0-1.13,0H76.86a1.57,1.57,0,0,0-.79.1c-.13.09-.19.26-.19.59v2.9h1a11.76,11.76,0,0,1,2.51.2,4.48,4.48,0,0,1,1.67.64A2.69,2.69,0,0,1,82,9.5a4.53,4.53,0,0,1,.29,1.72,4.59,4.59,0,0,1-.44,2.21,2.68,2.68,0,0,1-1.13,1.23,4.25,4.25,0,0,1-1.62.5A14.44,14.44,0,0,1,77.11,15.25Z"/><path class="cls-1" d="M60.57,12.45h-.78a11.06,11.06,0,0,1-.3,1.13,1.17,1.17,0,0,1-.39.64,1,1,0,0,1-.69.25,8.29,8.29,0,0,1-1.23,0,6.81,6.81,0,0,1-1.13,0,1.55,1.55,0,0,1-.64-.2.51.51,0,0,1-.25-.39,2.82,2.82,0,0,1,0-.69V9.35h2.12c.19,0,.39.05.59.05a2.43,2.43,0,0,1,.59.1,1.43,1.43,0,0,1,.49.19V8.12a1.44,1.44,0,0,1-.49.2,2.34,2.34,0,0,1-.59.09,2.39,2.39,0,0,1-.59.05H55.11v-4a1.28,1.28,0,0,1,.1-.54c.1-.1.25-.1.49-.1H57a7.48,7.48,0,0,1,1.13,0,1.33,1.33,0,0,1,.69.24,1.39,1.39,0,0,1,.45.59,7.46,7.46,0,0,1,.34,1h.64V3.1H51.82v.39a.8.8,0,0,0,.24,0,.81.81,0,0,1,.3.15.69.69,0,0,1,.14.3c0,.14,0,.29,0,.49v9.35a1.36,1.36,0,0,1,0,.49c0,.15,0,.25-.14.29a.43.43,0,0,1-.3.15.66.66,0,0,1-.24.05v.4h8.75Z"/><path class="cls-1" d="M44.19,14.27h0a.84.84,0,0,0,.39.19h0l.35,0,.34,0a6.54,6.54,0,0,0,.89-.09,3.06,3.06,0,0,0,.73-.45,2.2,2.2,0,0,0,.55-1,5.73,5.73,0,0,0,.19-1.72A3.84,3.84,0,0,0,47,9a2.45,2.45,0,0,0-2-.73H44v5.12a3.48,3.48,0,0,0,0,.36c0,.09,0,.16,0,.22a.38.38,0,0,0,0,.19.36.36,0,0,0,.11.16Zm1,1H40.65v-.44h0a.57.57,0,0,0,.23-.05.43.43,0,0,0,.3-.15.29.29,0,0,0,.14-.29,1.48,1.48,0,0,0,.05-.49V4.48a2.16,2.16,0,0,0,0-.28.88.88,0,0,1,0-.21.84.84,0,0,0-.14-.3.81.81,0,0,0-.3-.15.68.68,0,0,1-.19,0l-.05,0V3.1H49.7V5.81h-.64a5.48,5.48,0,0,0-.32-1l0-.07a1.25,1.25,0,0,0-1.13-.83,7.41,7.41,0,0,0-1.13,0H45a1.57,1.57,0,0,0-.79.1c-.14.09-.2.26-.2.59v2.9h1a11.76,11.76,0,0,1,2.51.2,4.54,4.54,0,0,1,1.68.64,2.59,2.59,0,0,1,.93,1.18,4.52,4.52,0,0,1,.3,1.72A4.58,4.58,0,0,1,50,13.43a3.1,3.1,0,0,1-1.18,1.23,4.19,4.19,0,0,1-1.62.5A13.72,13.72,0,0,1,45.22,15.25Z"/><path class="cls-1" d="M118.93,15.35h0l-4.13,0c0-.07-.07-.15-.11-.23a6.8,6.8,0,0,0-.38-.7c-.18-.32-.37-.6-.64-1a6.88,6.88,0,0,1-.62-.86l0,0c-.1-.15-.21-.3-.32-.44l-.32-.45c-.19-.23-.36-.46-.53-.71,0-.07-.1-.15-.16-.22l-.74-1c.1-.16.23-.33.37-.52l.22-.31a6.24,6.24,0,0,0,.44-.6l.35-.48c.22-.3.42-.59.62-.91l.22-.33c.18-.32.38-.64.58-.94l.2-.33a7.4,7.4,0,0,0,.57-.91l.12-.23a7.29,7.29,0,0,0,.45-.88H118a12.85,12.85,0,0,0-1.13.93,15,15,0,0,0-1.23,1.27l0,.06a15.87,15.87,0,0,0-1.23,1.43l-.45.55c-.21.25-.41.49-.59.73l-.19.25c.24.39.51.78.79,1.17s.54.74.83,1.09l.94,1.08,1,1.18c.22.22.51.54.84.92l.14.16.64.66c.21.22.42.45.64.67Zm-.09,4.53H29.62V18.7h89.22v1.18Z"/><path class="cls-1" d="M111.36,14.86a1,1,0,0,0-.25,0,.81.81,0,0,1-.3-.15,1,1,0,0,1-.14-.29c0-.15,0-.3,0-.49V4.53a1.31,1.31,0,0,1,0-.49.31.31,0,0,1,.14-.3.81.81,0,0,1,.3-.15.67.67,0,0,1,.25,0V3.1h-4v.39a1,1,0,0,0,.25,0,.84.84,0,0,1,.29.15.81.81,0,0,1,.15.3c0,.14,0,.29,0,.49v9.35a1.36,1.36,0,0,1,0,.49.28.28,0,0,1-.15.29.42.42,0,0,1-.29.15.67.67,0,0,1-.25.05v.4h4v-.35Z"/><path class="cls-1" d="M87.69,5.12,86,10h3.34ZM94,15.3h-3.1a4.63,4.63,0,0,0-.25-1.08,14.79,14.79,0,0,0-.54-1.77l-.54-1.57H85.72c-.45,1.41-.71,2.28-.84,2.9s-.24,1.17-.29,1.52H82.37l0,0c.09-.18.19-.37.33-.6s.19-.35.3-.58l.19-.4c.09-.24.22-.53.36-.87l.28-.66c.06-.15.13-.32.21-.5.22-.52.47-1.11.72-1.76l2-4.82a1.79,1.79,0,0,0,.15-.79V4a.84.84,0,0,0-.15-.29.75.75,0,0,0-.29-.15.61.61,0,0,1-.19,0l-.06,0V3.15h3.5c0,.08,0,.18.05.29s0,.19,0,.3l0,.07a3.85,3.85,0,0,0,.23.82l2.8,8a14.35,14.35,0,0,0,.69,1.72c.07.14.13.27.2.39a4.59,4.59,0,0,0,.3.59Z"/><path class="cls-1" d="M7.19,12.65h0l-6.93-4A6.1,6.1,0,0,1,.54,7.38l6.59,3.79L20.77,3.35l.73,1L7.19,12.65Zm91.52,2.6h-4v-.39h0a.57.57,0,0,0,.23,0,.38.38,0,0,0,.29-.15.3.3,0,0,0,.15-.29,1.48,1.48,0,0,0,0-.49V4.48a2.16,2.16,0,0,0,0-.28.88.88,0,0,1,0-.21.81.81,0,0,0-.15-.3A.68.68,0,0,0,95,3.54a.68.68,0,0,1-.19,0l-.06,0V3.1h4v.39h0l-.23,0a.84.84,0,0,0-.29.15A.3.3,0,0,0,98,4a1.31,1.31,0,0,0,0,.49V8.37h4.73V4.48a2,2,0,0,0,0-.28,1.83,1.83,0,0,1,0-.21.81.81,0,0,0-.15-.3.81.81,0,0,0-.3-.15.59.59,0,0,1-.18,0l-.06,0V3.1h3.89v.34h0a.66.66,0,0,0-.23,0,.81.81,0,0,0-.3.15.31.31,0,0,0-.14.3,1.33,1.33,0,0,0,0,.49v9.4a2.46,2.46,0,0,0,0,.28,1.52,1.52,0,0,1,0,.21.85.85,0,0,0,.14.29.81.81,0,0,0,.3.15.41.41,0,0,1,.19,0h.06v.4h-4v-.4h0a.6.6,0,0,0,.23-.05.42.42,0,0,0,.29-.14.3.3,0,0,0,.15-.3,1.36,1.36,0,0,0,0-.49V9.2H97.87v4.68a2.4,2.4,0,0,0,0,.28,1.49,1.49,0,0,1,0,.21.68.68,0,0,0,.15.29.81.81,0,0,0,.3.15.37.37,0,0,1,.18,0h.16v.39Z"/><path class="cls-1" d="M7.13,14.12.05,10a4.14,4.14,0,0,0,0,.79,11.71,11.71,0,0,0,23.42,0,11.3,11.3,0,0,0-1.28-5.32Z"/><path class="cls-1" d="M19.83,2.36c-.34-.34-.69-.59-1-.88L7.13,8.22,1.53,5c-.2.34-.4.74-.59,1.13L7.09,9.69,19.83,2.36Z"/><path class="cls-1" d="M17.62.69A12.68,12.68,0,0,0,16.24,0L7.13,5.26,3.05,3c-.29.3-.54.64-.84,1l4.88,2.8Z"/><path class="cls-1" d="M81,24.36l-.39,1.72h1c.8,0,1.28-.37,1.28-1s-.3-.74-.89-.74Zm-.53,2.11-.3,1.87h1.13c.73,0,1.18-.37,1.18-1,0-.44-.39-.89-1.13-.89Zm.73,2.27H79.58L80.5,24H82c.84,0,1.28.4,1.28,1.14,0,.59-.34,1-1.13,1.23a1.08,1.08,0,0,1,.78,1C83,28.26,82.35,28.74,81.19,28.74Z"/><path class="cls-1" d="M86.31,27.9a1.45,1.45,0,0,1-1.33.94,1.39,1.39,0,0,1-1.33-1.53,1.85,1.85,0,0,1,1.63-2,1.24,1.24,0,0,1,1.23,1l-.45.09c-.14-.44-.39-.68-.78-.68-.64,0-1.18.68-1.18,1.67,0,.69.34,1,.93,1a1,1,0,0,0,.93-.64l.35.15Z"/><path class="cls-1" d="M88.57,25.74c-.57,0-.91.3-1.13,1h1.92v-.05a.16.16,0,0,0,0-.15s0,0,0-.05A.74.74,0,0,0,88.57,25.74Zm-.39,3.1c-.78,0-1.28-.58-1.28-1.48,0-1.2.7-2.07,1.67-2.07.8,0,1.23.49,1.23,1.38a1.64,1.64,0,0,1,0,.22,1.66,1.66,0,0,0,0,.22H87.34v.25c0,.68.33,1.08.89,1.08s.82-.39,1.08-.79l.4.2A1.75,1.75,0,0,1,88.18,28.84Z"/><polygon class="cls-1" points="90.94 25.39 92.85 25.39 92.8 25.79 91.33 25.79 90.74 28.79 90.29 28.79 90.94 25.39"/><path class="cls-1" d="M106.24,25.74c-.48,0-.74.27-.74.54s.19.49.59.49h1l.25-1Zm-1.08,3.05h-.5l1.14-1.58a.93.93,0,0,1-.69-.88c0-.46.41-.94,1.18-.94h1.62l-.69,3.39h-.44l.29-1.58h-.83l-1.08,1.58Zm8.07-3.1c-.57,0-1.18.71-1.18,1.77,0,.6.3,1,.78,1s1.18-.71,1.18-1.72C114,26.11,113.69,25.69,113.23,25.69Zm-.45,3.15c-.71,0-1.18-.58-1.18-1.48a2.29,2.29,0,0,1,.61-1.63,1.42,1.42,0,0,1,1-.44c.72,0,1.18.57,1.18,1.48A1.92,1.92,0,0,1,112.78,28.84Zm-15.1-1.73c-1,0-1.43.25-1.43.74a.57.57,0,0,0,.59.59,1.71,1.71,0,0,0,1-.44l.2-.89Zm-.89,1.77a1,1,0,0,1-1-1c0-.71.68-1.13,1.82-1.13h.49a1,1,0,0,1,0-.24h0a1,1,0,0,0,0-.15c0-.38-.29-.63-.74-.63a.94.94,0,0,0-.74.39l-.29-.3a1.69,1.69,0,0,1,1.13-.49,1,1,0,0,1,1.13,1s0,.08,0,.14h0a3.89,3.89,0,0,0,0,.39L98.37,28a3,3,0,0,0-.1.84h-.45a1,1,0,0,1,0-.4A1.45,1.45,0,0,1,96.79,28.88Zm-2.66-3.05L93,28.39h1.53l-.25-2.56Zm-1.82,3.6H92l.19-1h.3l1.43-3h.69l.39,3h.34l-.19,1h-.35l0-.64H92.51l-.2.64ZM110,25.83l-1.18,2.56h1.52l-.24-2.56Zm-1.77,3.6h-.35l.2-1h.29l1.43-3h.69l.39,3h.35l-.2,1h-.34l0-.64H108.4l-.19.64Zm-5.07-3.74a1,1,0,0,0-.94.59L101.81,28a1,1,0,0,0,.89.49c.67,0,1.23-.79,1.23-1.77C103.93,26,103.64,25.69,103.14,25.69Zm-1.77,4.42h-.45l.94-4.77h.39l0,.44a1.43,1.43,0,0,1,1-.49c.74,0,1.13.5,1.13,1.43,0,1.19-.71,2.11-1.62,2.11a1.32,1.32,0,0,1-1-.44l-.34,1.72Z"/><polygon class="cls-1" points="118.34 25.79 116.87 28.79 116.42 28.79 115.98 25.79 115.39 28.79 114.95 28.79 115.64 25.39 116.38 25.39 116.77 28.34 118.19 25.39 118.94 25.39 118.25 28.79 117.8 28.79 118.34 25.79"/></g></g></svg>