<svg xmlns="http://www.w3.org/2000/svg" viewBox="0 0 91.82 32.74"><defs><style>.cls-1{fill:#009fdf;}.cls-1,.cls-2{fill-rule:evenodd;}.cls-2{fill:#0a2973;}</style></defs><title>Ресурс 21</title><g id="Слой_2" data-name="Слой 2"><g id="Слой_1-2" data-name="Слой 1"><path class="cls-1" d="M1.56,12.85,0,17.13H21.67l1.56-4.28ZM3.9,6.42,2.34,10.71H24l1.56-4.29ZM6.25,0,4.69,4.28H26.36L27.92,0Z"/><path class="cls-2" d="M78.72,28.34h3.92a3.41,3.41,0,0,0,3-1.18,3.81,3.81,0,0,0,.77-2.5,3.46,3.46,0,0,0-1.35-3A3.87,3.87,0,0,0,82.59,21H78.72Zm-5.18,4.4V6.51H90.47L89,10.91H78.72v5.81h4.19c3.38,0,5.13.82,6.35,1.86a7.77,7.77,0,0,1,2.56,6.22,7.54,7.54,0,0,1-3.06,6.49c-1.62,1.13-3.33,1.45-6.8,1.45Zm-15,0V10.91H51V6.51h20.9l-1.49,4.4H63.77V32.74ZM37.69,17h2.93a6.06,6.06,0,0,0,1.8-.14,2.87,2.87,0,0,0,2-3,2.64,2.64,0,0,0-2-2.9,7,7,0,0,0-2-.18H37.69Zm0,4.54v6.9h3.61a3.85,3.85,0,0,0,2.79-.77,3.44,3.44,0,0,0,1-2.68,3.77,3.77,0,0,0-.68-2.27c-.77-.95-1.71-1.18-3.33-1.18Zm8.34-2.77v.09a9.32,9.32,0,0,1,2.43,1.41,6.21,6.21,0,0,1,2.2,5.13c0,3.59-1.89,6.17-5,7a13.32,13.32,0,0,1-3.79.36H32.51V6.51h8.33a15.48,15.48,0,0,1,3.92.36c3,.82,5,2.9,5,6.22a5.79,5.79,0,0,1-1.67,4.26A6.27,6.27,0,0,1,46.07,18.76Z"/></g></g></svg>