<svg xmlns="http://www.w3.org/2000/svg" viewBox="0 0 91.48 32.39"><defs><style>.cls-1{fill:#314452;}.cls-2{fill:#8ac53e;}</style></defs><title>Ресурс 15</title><g id="Слой_2" data-name="Слой 2"><g id="Слой_1-2" data-name="Слой 1"><polygon class="cls-1" points="29.53 0 29.53 0.01 26.68 2.87 26.68 0 23.82 0 19.06 4.77 19.06 17.16 20.97 17.16 20.97 5.72 24.78 1.91 24.78 17.16 26.68 17.16 26.68 5.72 30.49 1.91 30.49 17.16 32.4 17.16 32.4 0 29.53 0"/><path class="cls-1" d="M5.72,1.91,1.91,5.72v9.53H5.72Zm1.9,15.25H0V4.77L4.77,0H7.62V17.16Z"/><path class="cls-1" d="M11.43,1.91V15.25h3.81V1.91Zm5.73,15.23H9.53V0h7.63V17.14Z"/><rect class="cls-1" y="19.06" width="32.39" height="1.91"/><path class="cls-1" d="M1.91,24.78v3.81h9.52V24.78Zm0,7.61H0V22.87H13.34v7.62H1.91v1.9Z"/><path class="cls-1" d="M17.16,24.78v3.81h5.71V24.78Zm7.62,0v3.81h5.71V24.78Zm0,7.61h-1.9v-1.9H15.24V22.87H32.39v7.62H24.77v1.9Z"/><path class="cls-1" d="M60.76,17.58v2.36h1.66a1.1,1.1,0,0,0,1.19-1.18,1.11,1.11,0,0,0-1.19-1.18Zm1.74,3.86H59.08V12.86h5.66v1.49h-4v1.74H62.5a2.83,2.83,0,0,1,2,.75,2.64,2.64,0,0,1,.74,1.92A2.56,2.56,0,0,1,62.5,21.44Z"/><path class="cls-1" d="M70.42,15.4h0l-1.08,3.12h2.13l-1-3.12Zm-2.06,6H66.62l3.11-8.58H71l3.12,8.57H72.42l-.51-1.52h-3l-.52,1.52Z"/><polygon class="cls-1" points="80.47 21.43 80.47 17.85 77.59 17.85 77.59 21.43 75.91 21.43 75.91 12.87 77.59 12.87 77.59 16.36 80.47 16.36 80.47 12.87 82.15 12.87 82.15 21.43 80.47 21.43"/><polygon class="cls-1" points="84.76 21.43 84.76 12.87 86.43 12.87 86.43 16.93 89.19 12.87 91.19 12.87 88.32 16.89 91.48 21.43 89.44 21.43 86.43 16.96 86.43 21.43 84.76 21.43"/><rect class="cls-2" x="45.73" width="1.9" height="32.39"/></g></g></svg>