<svg xmlns="http://www.w3.org/2000/svg" viewBox="0 0 160.29 31.63"><defs><style>.cls-1{fill:#2a4594;}.cls-2{fill:#ea5e20;}</style></defs><title>Ресурс 6</title><g id="Слой_2" data-name="Слой 2"><g id="Слой_1-2" data-name="Слой 1"><polygon class="cls-1" points="142.28 21.14 142.28 12.06 144.97 12.06 144.97 15.46 147.81 15.46 147.81 12.06 150.5 12.06 150.5 21.14 147.81 21.14 147.81 17.02 144.97 17.02 144.97 21.14 142.28 21.14"/><path class="cls-1" d="M138.45,16.46h-.08c-1.1.13-2.62.3-2.62,2a1.43,1.43,0,0,0,1.64,1.48,2.72,2.72,0,0,0,1.06-.2Zm-1.25,4.89a5.3,5.3,0,0,1-2.68-.59,2.38,2.38,0,0,1-1.18-2.18,2.9,2.9,0,0,1,1.84-2.7,3.77,3.77,0,0,1,1.56-.42,4.16,4.16,0,0,1,.82-.15c.26,0,.56-.07.89-.14v-.28c0-1.37-.86-1.56-1.71-1.56a5.75,5.75,0,0,0-2.55.71l-.14-1.7a8.15,8.15,0,0,1,3.26-.56,7,7,0,0,1,1.85.28,2.44,2.44,0,0,1,1.7,2v6.67A11.15,11.15,0,0,1,137.2,21.35Z"/><path class="cls-1" d="M128.23,13.33a1.39,1.39,0,0,0-1.13.43,4,4,0,0,0-.71,2.55c0,.36,0,3.54,1.84,3.54a1.42,1.42,0,0,0,1.14-.41,4.67,4.67,0,0,0,.71-2.7,6.32,6.32,0,0,0-.43-2.27A1.63,1.63,0,0,0,128.23,13.33Zm.14,8a4.06,4.06,0,0,1-4.11-3,15.33,15.33,0,0,1-.28-6.24,5.32,5.32,0,0,1,4.11-4.55c1.68-.41,3.81-.7,3.83-.7l.14,2h0c-.43.09-1.6.33-3.23.56-2.19.44-3.12,1.63-3.12,4a3.68,3.68,0,0,1,3.1-1.52,4,4,0,0,1,2.57.81,3.2,3.2,0,0,1,1.14,1.85,6,6,0,0,1,.31,1.31,4.58,4.58,0,0,0,.12.68C132.92,19.62,131.35,21.28,128.37,21.28Z"/><polygon class="cls-1" points="151.92 21.14 151.92 12.06 154.48 12.06 154.48 16.31 157.46 12.06 160.01 12.06 157.03 16.18 160.29 21.28 157.46 21.28 154.62 16.74 154.62 21.28 151.92 21.28 151.92 21.14"/><path class="cls-1" d="M110.22,21.28a5.45,5.45,0,0,1-2.55-.42l.28-1.57a3,3,0,0,0,2,.56c1.28,0,2-.56,2-1.41a1.25,1.25,0,0,0-.43-1c-.28-.28-.56-.28-.85-.43h-1.56V15.6h.15c1,0,2.55,0,2.55-1.27a1.21,1.21,0,0,0-1.56-1.13,4.12,4.12,0,0,0-2.27.56l-.14-1.57a7.64,7.64,0,0,1,3-.56c2.12,0,3.4.86,3.4,2.27a2.47,2.47,0,0,1-1.7,2.13,9.73,9.73,0,0,1,1.13.43,2.21,2.21,0,0,1,.85,1.7,2.68,2.68,0,0,1-1.56,2.4A3.84,3.84,0,0,1,110.22,21.28Z"/><path class="cls-1" d="M86.67,21.28c-3,0-4.68-1.84-4.68-4.82s1.84-4.68,4.82-4.68a5.26,5.26,0,0,1,2.13.41l-.28,1.71a2.43,2.43,0,0,0-1.42-.42c-1.7,0-2.56,1.41-2.56,3.11s.71,3.26,2.56,3.26a2.42,2.42,0,0,0,1.42-.41l.14,1.7A10.21,10.21,0,0,1,86.67,21.28Z"/><path class="cls-1" d="M118.3,16.31v3.41a3.32,3.32,0,0,0,.44,0,2.28,2.28,0,0,0,1.25-.32,1.71,1.71,0,0,0,.72-1.56,2.08,2.08,0,0,0-.14-1c-.25-.39-.76-.58-1.56-.58h-.71Zm0,5a21.88,21.88,0,0,1-2.69-.14V12.06h2.55v2.83h1a4.54,4.54,0,0,1,2.69.56A2.8,2.8,0,0,1,123,17.73a3.07,3.07,0,0,1-1.75,2.89A6.56,6.56,0,0,1,118.3,21.28Z"/><path class="cls-1" d="M92.91,13.33v2.42h.71c1.26,0,1.85-.41,1.85-1.28,0-.19-.08-1.14-1.57-1.14Zm0,3.84v2.55h.71c1.26,0,2-.52,2-1.42a.84.84,0,0,0-.43-.85,1.86,1.86,0,0,0-.85-.28H92.91Zm.57,4.11c-1.67,0-2.89-.12-3.12-.14V12.06h0a14.62,14.62,0,0,1,3.11-.28,7.15,7.15,0,0,1,3,.41,1.94,1.94,0,0,1,1,.86,2.63,2.63,0,0,1,.28,1.13A2,2,0,0,1,96,16.31a2.07,2.07,0,0,1,2.13,2v.14C98.16,20.91,95.23,21.28,93.48,21.28Z"/><path class="cls-1" d="M102.7,13.2c-1,0-1.42.41-1.42,1.27s.57,1.41,1.85,1.41h.56V13.2ZM101,21.14H98.3L100.71,17a2.2,2.2,0,0,1-1.84-2.41c0-2.51,2.35-2.83,4.4-2.83a14.76,14.76,0,0,1,3.12.28v9.08h-2.7V17.45H103l-2,3.69Z"/><polygon class="cls-1" points="39.86 21.14 39.86 8.52 49.51 8.52 49.51 21.14 46.67 21.14 46.67 10.36 42.55 10.36 42.55 21.14 39.86 21.14"/><path class="cls-1" d="M54.4,13.26a5.23,5.23,0,0,0-.78.07v6l.18,0a3.67,3.67,0,0,0,.89.12,1.92,1.92,0,0,0,1.45-.57,3.68,3.68,0,0,0,.74-2.56C56.88,14.32,56,13.26,54.4,13.26ZM53.62,25h-2.7V12.19l.17,0a19.31,19.31,0,0,1,3.48-.39c3.23,0,4.87,1.43,4.87,4.26a6.38,6.38,0,0,1-1.14,3.69A4.09,4.09,0,0,1,55,21.2,4,4,0,0,1,53.62,21v4Z"/><path class="cls-1" d="M65,13.2a1.78,1.78,0,0,0-1.56,1.27,5.06,5.06,0,0,0-.29,2c0,.56.09,3.39,1.85,3.39a1.52,1.52,0,0,0,1.42-1.41c0-.22.07-.42.1-.61a7.6,7.6,0,0,0,.18-1.37,11.11,11.11,0,0,0-.28-2.28A1.49,1.49,0,0,0,65,13.2Zm-.29,8.08c-2.74,0-4.25-1.71-4.25-4.82s1.65-4.83,4.54-4.83a4.24,4.24,0,0,1,2.55.71,2.81,2.81,0,0,1,1.28,1.84,11,11,0,0,1,.28,2.13,5,5,0,0,1-1,3.85A4.47,4.47,0,0,1,64.68,21.28Z"/><polygon class="cls-1" points="69.79 21.14 70.78 12.06 73.76 12.06 75.61 18.16 77.59 12.06 80.57 12.06 81.42 21.14 79.01 21.14 78.44 14.61 76.46 21.14 74.47 21.14 72.34 14.47 71.92 21.14 69.79 21.14"/><path class="cls-1" d="M31.77,7.66A7.63,7.63,0,0,0,24.11,0H13.05A7.76,7.76,0,0,0,5.67,5.67h13.2c5.1,0,7.23,2.42,7.23,8V26.1a7.74,7.74,0,0,0,5.67-7.37Z"/><path class="cls-2" d="M0,24a7.63,7.63,0,0,0,7.66,7.66H18.58A7.61,7.61,0,0,0,26,26h-13C7.8,26,5.67,23.54,5.67,18V5.67A7.74,7.74,0,0,0,0,13.05Z"/><path class="cls-1" d="M19.43,9.36v2.27h.86q1.41,0,1.41-1.14c0-.28,0-1.13-1.41-1.13Zm0,3.55v2.54h1c1.23,0,1.56-.79,1.56-1.26s-.18-1.28-1.56-1.28Zm-3.12,0c-1,0-1.27.46-1.27.85,0,.69.53,1,1.1,1.27h0a4.39,4.39,0,0,0,.69.34h0a4.89,4.89,0,0,1,.72.37V13.62l.71-.71h-2ZM9.93,16.18v3h.85c.85,0,1.39-.53,1.56-1.55a1.32,1.32,0,0,0-.42-1,1.65,1.65,0,0,0-1.14-.38Zm0,7.64H8.09V14.89h2.69c3.07,0,3.4,2,3.4,2.84a2.66,2.66,0,0,1-.42,1.41H15.6A1.29,1.29,0,0,0,17,18c0-.7-.68-1-1.4-1.34l-.44-.21c-1.38-.56-2.13-1.11-2.13-2.42a2.53,2.53,0,0,1,2.84-2.56h1.7V7.94h3c1.36,0,3,.37,3,2.13a2.12,2.12,0,0,1-1.42,2.12,2.29,2.29,0,0,1,2,2c0,.76-.35,2.55-3.55,2.55H18.72l.08.21A2.89,2.89,0,0,1,19,18c0,1.57-1.31,2.55-3.41,2.55h-5l-.71-.71v4Z"/></g></g></svg>