<svg xmlns="http://www.w3.org/2000/svg" viewBox="0 0 181.67 36.53"><defs><style>.cls-1{fill:#245f34;}.cls-2{fill:#fff;}.cls-3{fill:#ffcb05;}</style></defs><title>Ресурс 23</title><g id="Слой_2" data-name="Слой 2"><g id="Слой_1-2" data-name="Слой 1"><rect class="cls-1" x="6.39" width="8.21" height="9.18"/><path class="cls-1" d="M15.69,36.53a15.94,15.94,0,0,0,0-31.88,15.94,15.94,0,0,0,0,31.88Z"/><path class="cls-1" d="M178.22,20.46l3.45,7h-3.09l-2.33-4.76-1.52,1.7v3.06h-2.95V16.8h2.95v2.66c0,.43,0,1.05,0,1.88a9.05,9.05,0,0,1,.85-1.1l3-3.44h2.74Zm-17.86,7V16.8h3v3.84h3.07V16.8h3V27.46h-3V22.93h-3.07v4.53ZM155,22.35c-2.07.22-3.1.89-3.1,2a1.52,1.52,0,0,0,.32,1,1.14,1.14,0,0,0,.94.41,1.59,1.59,0,0,0,1.31-.69,2.67,2.67,0,0,0,.53-1.7Zm3.14,5.11h-2.87a8.25,8.25,0,0,1-.14-1.67,4.32,4.32,0,0,1-1.5,1.52,3.77,3.77,0,0,1-1.71.37,3.2,3.2,0,0,1-2.27-.81,2.85,2.85,0,0,1-.87-2.19,3.49,3.49,0,0,1,.5-1.84,3.43,3.43,0,0,1,1.63-1.33A14.58,14.58,0,0,1,155,20.8v-.61c0-1-.49-1.55-1.46-1.55a1.56,1.56,0,0,0-1.74,1.55l-2.72-.27a3.28,3.28,0,0,1,1.61-2.58,6.2,6.2,0,0,1,3.06-.76,6.65,6.65,0,0,1,1.92.26,3.17,3.17,0,0,1,1.41.76,2.58,2.58,0,0,1,.69,1.07,7.27,7.27,0,0,1,.18,2v4.84A7.22,7.22,0,0,0,158.11,27.46Zm-18.06-2.72h2.44a1.64,1.64,0,0,0,1.8-1.74c0-1.12-.69-1.68-2.06-1.68h-2.18Zm-3.12,2.72V13.06H146v2.58h-5.95v3.15h2.28a8.86,8.86,0,0,1,2.82.36,3.29,3.29,0,0,1,1.69,1.39,4.63,4.63,0,0,1,.66,2.52,4.32,4.32,0,0,1-1.2,3.24A4.57,4.57,0,0,1,143,27.46ZM129.7,22.8V21.14a3.12,3.12,0,0,0,2.05-.43,1.42,1.42,0,0,0,.41-1,1.31,1.31,0,0,0-.39-1,1.59,1.59,0,0,0-1.13-.38,1.73,1.73,0,0,0-1.85,1.58l-2.07-.38q.68-3,4.09-3a4.21,4.21,0,0,1,2.8.82,2.63,2.63,0,0,1,.95,2.08,2.43,2.43,0,0,1-1.85,2.31,2.54,2.54,0,0,1,2.15,2.57,3.09,3.09,0,0,1-1,2.37,4.22,4.22,0,0,1-3,.95q-3.57,0-4.35-3.26l2.08-.39c.27,1.26,1,1.9,2.07,1.9a1.85,1.85,0,0,0,1.33-.45,1.53,1.53,0,0,0,.49-1.21,1.36,1.36,0,0,0-1.17-1.4A12.28,12.28,0,0,0,129.7,22.8Zm-8.91,2.9c1.52,0,2.28-1.21,2.28-3.62a5.16,5.16,0,0,0-.54-2.58,1.82,1.82,0,0,0-1.68-.95,1.86,1.86,0,0,0-1.73,1,5.1,5.1,0,0,0-.57,2.59,4.87,4.87,0,0,0,.6,2.66A1.87,1.87,0,0,0,120.79,25.7Zm-.08,2a3.87,3.87,0,0,1-3.39-1.7,6.62,6.62,0,0,1-1.17-3.89,6,6,0,0,1,1.29-3.94,4.24,4.24,0,0,1,3.42-1.57,4.14,4.14,0,0,1,3.31,1.53,6,6,0,0,1,1.29,4,5.92,5.92,0,0,1-1.34,4.06A4.34,4.34,0,0,1,120.71,27.68Zm-5-.22h-2.58L111,23.58l-2.33,3.88h-1.94L110.06,22l-2.88-5.18h2.59l1.64,3.13,1.88-3.13h1.89l-2.82,4.62Zm-15.29-1.87h2.19a1.66,1.66,0,0,0,1.2-.35,1.57,1.57,0,0,0,.36-1.15c0-1.09-.52-1.64-1.55-1.64h-2.2v3.14Zm-2.26,1.87V16.8h2.26v3.89h2.64a3.07,3.07,0,0,1,2.52,1,3.67,3.67,0,0,1,.81,2.43,3,3,0,0,1-3.33,3.35Zm-10.26,0L91.1,16.8h2.66l3.12,10.66H94.52l-2.27-8.79-2.52,8.79ZM85,20.88A2.82,2.82,0,0,0,84.35,19,2.1,2.1,0,0,0,81.21,19a3.14,3.14,0,0,0-.73,1.93Zm.14,3.18,2,.3a4.58,4.58,0,0,1-1.54,2.38,4.4,4.4,0,0,1-2.89.94,4.19,4.19,0,0,1-3.36-1.49,6,6,0,0,1-1.27-4,6.19,6.19,0,0,1,1.28-4,4.25,4.25,0,0,1,3.47-1.58,3.92,3.92,0,0,1,3.32,1.56,6.51,6.51,0,0,1,1.16,4v.28H80.47a6.35,6.35,0,0,0,.19,1.74,2.32,2.32,0,0,0,.77,1.13,2.15,2.15,0,0,0,1.44.49A2.24,2.24,0,0,0,85.14,24.06Zm-10-.51,1.94.21a5.09,5.09,0,0,1-1.46,3,3.79,3.79,0,0,1-2.61,1,3.61,3.61,0,0,1-3.18-1.61,6.71,6.71,0,0,1-1.12-3.94,6.25,6.25,0,0,1,1.22-4,3.91,3.91,0,0,1,3.25-1.57c2.18,0,3.49,1.22,3.9,3.67l-1.94.28c-.17-1.32-.79-2-1.84-2a1.75,1.75,0,0,0-1.67,1.07,5.87,5.87,0,0,0-.52,2.59,4.75,4.75,0,0,0,.54,2.49,1.68,1.68,0,0,0,1.51.88C74.1,25.58,74.76,24.9,75.09,23.55Zm-9.47,0,1.95.21a5.15,5.15,0,0,1-1.46,3,3.83,3.83,0,0,1-2.62,1,3.61,3.61,0,0,1-3.18-1.61,6.71,6.71,0,0,1-1.12-3.94,6.31,6.31,0,0,1,1.22-4,3.91,3.91,0,0,1,3.25-1.57q3.28,0,3.91,3.67l-1.95.28c-.17-1.32-.78-2-1.84-2a1.75,1.75,0,0,0-1.67,1.07,5.87,5.87,0,0,0-.52,2.59,4.75,4.75,0,0,0,.54,2.49,1.69,1.69,0,0,0,1.51.88C64.64,25.58,65.3,24.9,65.62,23.55ZM53.09,25.7c1.52,0,2.28-1.21,2.28-3.62a5.16,5.16,0,0,0-.54-2.58,1.83,1.83,0,0,0-1.68-.95,1.89,1.89,0,0,0-1.74,1,5.21,5.21,0,0,0-.56,2.59,4.88,4.88,0,0,0,.59,2.66A1.89,1.89,0,0,0,53.09,25.7Zm-.08,2A3.87,3.87,0,0,1,49.62,26a6.69,6.69,0,0,1-1.17-3.89,6,6,0,0,1,1.29-3.94,4.24,4.24,0,0,1,3.42-1.57,4.16,4.16,0,0,1,3.31,1.53,6,6,0,0,1,1.29,4,5.92,5.92,0,0,1-1.34,4.06A4.34,4.34,0,0,1,53,27.68ZM39.77,19.52h2.89a2.34,2.34,0,0,0,1.73-.59A2.08,2.08,0,0,0,45,17.36a2.22,2.22,0,0,0-.55-1.52,2.55,2.55,0,0,0-2-.63H39.77v4.31Zm0,7.94H37.33V13.06h5.55a4.51,4.51,0,0,1,3.52,1.27,4.32,4.32,0,0,1,1.14,3,4.21,4.21,0,0,1-4.38,4.42H39.77Z"/><path class="cls-1" d="M15.69,35.19a14.6,14.6,0,0,0,0-29.2,14.6,14.6,0,0,0,0,29.2Z"/><rect class="cls-2" x="13.01" y="22.7" width="0.64" height="6.49"/><path class="cls-2" d="M29.67,22.78H27.29v.58h.36c.68,0,1.45,0,1.82.47A14.41,14.41,0,0,1,28,27.64V24.53h-.71v4.26a14.47,14.47,0,0,1-1.61,2l-.08.08V21.62h4.09v1h0ZM24.88,26a1.08,1.08,0,0,0-.69-.66l.69-3.59Zm-.51,5.89h0A13.76,13.76,0,0,1,22.82,33V26.83h-.67v6.54a12.68,12.68,0,0,1-1.55.7V27c0-.65.16-1.14.82-1.36l-.73-4h1.46L22.4,26h.18l.25-4.37h1.54l-.83,4c.7.24.83.67.83,1.36Zm-4-8.78.44,2.23a1.24,1.24,0,0,0-.44.25Zm-.62,3H18.26V22.81h-.62V34h.62V26.76h1.46v7.05a3.39,3.39,0,0,1,0,.58,14.79,14.79,0,0,1-3.2.56,1.81,1.81,0,0,1-.29-1.14V23a1.68,1.68,0,0,1,.33-1.18,1.54,1.54,0,0,1,1.13-.33c.55,0,1.35-.08,1.76.33A1.74,1.74,0,0,1,19.72,23Zm-4,8.83a13.8,13.8,0,0,1-2-.15V31.07a1.88,1.88,0,0,0,1.92-1v3.74A2.75,2.75,0,0,0,15.78,35ZM13,30.45v4.26a12.19,12.19,0,0,1-1.47-.38V21.45h2.11a1.6,1.6,0,0,1,1.15.33,1.51,1.51,0,0,1,.33,1.14V29a1.51,1.51,0,0,1-.33,1.14,2.08,2.08,0,0,1-1.46.34ZM15.69,5.77c-.35,0-.7,0-1,0v.44c.35,0,.69,0,1,0a14,14,0,0,1,10,4.21,14.5,14.5,0,0,1,4.15,10.17c0,.15,0,.3,0,.44H19.93l.14.73a1.86,1.86,0,0,0-1.81-.88h-.62a1.79,1.79,0,0,0-2,1.27c-.22-.89-.9-1.33-2-1.33H10.9V34.11a14.3,14.3,0,0,1-5.21-3.36,14.52,14.52,0,0,1,0-20.33l.7-.66V9.18a14.86,14.86,0,0,0,9.3,26.23,14.82,14.82,0,0,0,0-29.64Z"/><polygon class="cls-2" points="3.5 12.78 3.53 13.25 3.59 13.7 3.7 14.12 3.83 14.54 3.99 14.93 4.19 15.31 4.39 15.68 4.62 16.03 4.87 16.36 5.15 16.7 5.73 17.34 6.35 17.95 6.98 18.57 7.61 19.17 8.24 19.78 8.81 20.42 9.09 20.76 9.34 21.09 9.58 21.44 9.78 21.81 9.98 22.19 10.14 22.59 10.26 23 10.37 23.43 10.43 23.87 10.46 24.34 10.44 28.26 10.42 27.8 10.35 27.35 10.24 26.92 10.12 26.51 9.96 26.12 9.76 25.72 9.56 25.37 9.32 25.01 9.08 24.67 8.79 24.34 8.21 23.7 7.6 23.07 6.97 22.48 6.33 21.88 5.71 21.25 5.14 20.6 4.86 20.29 4.6 19.93 4.38 19.58 4.18 19.21 3.98 18.83 3.81 18.44 3.68 18.03 3.58 17.6 3.52 17.16 3.48 16.68 3.5 12.78"/><polygon class="cls-2" points="2.85 17.75 2.89 18.25 2.95 18.71 3.08 19.17 3.21 19.6 3.4 20.03 3.61 20.43 3.83 20.82 4.08 21.19 4.36 21.55 4.66 21.9 5.29 22.58 5.96 23.23 6.67 23.88 7.35 24.52 8.02 25.17 8.66 25.84 8.96 26.2 9.23 26.56 9.49 26.93 9.71 27.32 9.94 27.72 10.11 28.14 10.24 28.58 10.36 29.03 10.43 29.5 10.46 30 10.44 34.16 10.41 33.66 10.34 33.2 10.23 32.73 10.08 32.3 9.91 31.88 9.69 31.48 9.48 31.09 9.22 30.72 8.94 30.36 8.64 30 8.01 29.33 7.33 28.67 6.65 28.03 5.96 27.39 5.27 26.73 4.64 26.04 4.33 25.7 4.06 25.33 3.81 24.96 3.58 24.57 3.38 24.16 3.19 23.75 3.06 23.3 2.94 22.86 2.88 22.39 2.84 21.88 2.85 17.75"/><path class="cls-3" d="M17.24,15.36a.7.7,0,0,1,0,1.35l-.15.38c.4,0,.85.05.85.52a1,1,0,0,1-1,1,1.1,1.1,0,0,1-1.16-1c0-.45.16-.51.6-.66l-.13-.26.29-.26a.45.45,0,0,1-.27-.41.44.44,0,0,1,.27-.41l-.25-.19.09-.27c-.44-.14-.6-.21-.6-.65a1.1,1.1,0,0,1,1.16-1,1,1,0,0,1,1,1c0,.47-.39.52-.85.52Zm12.41.12H20.46c-.09-.23-.23-.38-.39-.38s-.31.15-.4.38h-.33c-.09-.23-.23-.38-.4-.38s-.3.15-.39.38h-.26a1.57,1.57,0,0,0,.32-.94,1.63,1.63,0,0,0-1.67-1.68,1.76,1.76,0,0,0-1.83,1.68,3.12,3.12,0,0,0,.43,1.1.37.37,0,0,0-.29.37.38.38,0,0,0,.32.37c-.1.35-.45.62-.45,1.19a1.75,1.75,0,0,0,1.82,1.67,1.62,1.62,0,0,0,1.67-1.67,1.57,1.57,0,0,0-.32-.94h.26c.09.23.24.37.4.37s.3-.14.39-.37h.33c.09.23.23.37.4.37s.3-.14.39-.37h6.75V17h-.32v.75h.32l.3.42-.62-.09v1h.62v-.46h.91v.46H29v-1l-.61.09.3-.42H29V17h-.31v-.38h.93a.44.44,0,0,0,.43-.44v-.27A.42.42,0,0,0,29.65,15.48Z"/><polygon class="cls-3" points="10.7 18.16 10.7 20.46 14.12 17.1 14.12 14.82 10.7 18.16"/><polygon class="cls-3" points="10.7 9.76 10.7 12.05 14.12 8.69 14.12 6.41 10.7 9.76"/><polygon class="cls-3" points="8 5.4 8 0.55 8.36 0.55 8.36 0.68 8.36 0.55 8.51 0.55 8.51 5.4 8 5.4"/><polygon class="cls-3" points="10.7 12.56 10.7 14.86 14.12 11.49 14.12 9.21 10.7 12.56"/><polygon class="cls-3" points="9.13 6.3 9.13 0.55 9.5 0.55 9.5 0.68 9.5 0.55 9.65 0.55 9.65 6.3 9.13 6.3"/><polygon class="cls-3" points="10.27 7.01 10.27 0.55 10.63 0.55 10.63 0.68 10.63 0.55 10.78 0.55 10.78 7.01 10.27 7.01"/><polygon class="cls-3" points="10.7 15.36 10.7 17.66 14.12 14.3 14.12 12.01 10.7 15.36"/><polygon class="cls-3" points="11.41 6.41 11.41 0.55 11.77 0.55 11.77 0.68 11.77 0.55 11.92 0.55 11.92 6.41 11.41 6.41"/><polygon class="cls-3" points="10.36 18.16 10.36 20.46 6.94 17.1 6.94 14.82 10.36 18.16"/><polygon class="cls-3" points="12.54 5.52 12.54 0.55 12.91 0.55 12.91 0.68 12.91 0.55 13.06 0.55 13.06 5.52 12.54 5.52"/><polygon class="cls-3" points="13.61 4.67 13.61 0.55 13.97 0.55 13.97 0.68 13.97 0.55 14.12 0.55 14.12 4.67 13.61 4.67"/><polygon class="cls-3" points="10.36 9.76 10.36 12.05 6.94 8.69 6.94 6.41 10.36 9.76"/><polygon class="cls-3" points="10.36 12.56 10.36 14.86 6.94 11.49 6.94 9.21 10.36 12.56"/><polygon class="cls-3" points="10.36 15.36 10.36 17.66 6.94 14.3 6.94 12.01 10.36 15.36"/><polygon class="cls-3" points="6.93 4.65 6.93 0.55 7.3 0.55 7.3 0.68 7.3 0.55 7.46 0.55 7.46 4.65 6.93 4.65"/><polygon class="cls-3" points="10.7 6.95 10.7 9.25 14.12 5.89 14.12 3.61 10.7 6.95"/><polygon class="cls-3" points="10.36 6.95 10.36 9.25 6.94 5.89 6.94 3.61 10.36 6.95"/></g></g></svg>