<svg xmlns="http://www.w3.org/2000/svg" viewBox="0 0 120 35.51"><defs><style>.cls-1{fill:#ff0404;}</style></defs><title>Ресурс 19</title><g id="Слой_2" data-name="Слой 2"><g id="Слой_1-2" data-name="Слой 1"><path class="cls-1" d="M84.05,20.17a1.31,1.31,0,0,1-.52-.11,1.19,1.19,0,0,1-.44-.3,1.46,1.46,0,0,1-.29-.44,1.6,1.6,0,0,1-.09-.53,1.34,1.34,0,0,1,2.68,0,1.21,1.21,0,0,1-.09.53,1.17,1.17,0,0,1-.29.44,1.12,1.12,0,0,1-.44.3A1.25,1.25,0,0,1,84.05,20.17Zm22.83,2.63h-2.1v-8h2.1v3h2.38v-3h2.11v8h-2.11V19.53h-2.38V22.8Zm8.44,0H113.2v-8h2.12v3h.35c.55,0,.65-.2.84-.61l.15-.3v0l0-.08.36-.74,0-.07h0a3,3,0,0,1,.52-.84,1.52,1.52,0,0,1,1.14-.48l.37,0a5.68,5.68,0,0,1,.61,0l-.11,1.46-.13,0a.52.52,0,0,0-.36.13c-.2.18-.31.34-.67,1.14s-.75,1.07-1.15,1.14v0c.67.16,1,.62,1.25,1.21s1.42,3,1.43,3h-2.29v0c-.17-.42-.75-1.82-1.08-2.48s-.42-.78-1-.78h-.28V22.8ZM39,13.79h0s-.41,1.45-.67,2.34l0,.11,0,.06-.07.24c-.14.45-.28.95-.44,1.46v0l-.12.4,0,.06-.06.2h0v0H40.4l-.06-.23-.19-.68-.08-.27v0L40,17.34l-.17-.61c-.1-.34-.15-.53-.17-.61-.15-.49-.35-1.27-.61-2.31v0Zm-2.72,9H33.94l3.88-11.19.07,0A2.84,2.84,0,0,1,39,11.4h0a4.51,4.51,0,0,1,1.34.21L44,22.8H41.61L41,20.6H37l-.59,1.88h0l0,.15-.05.17Zm9,.16h0l-.58-1.23a1.86,1.86,0,0,0,.7-.95A5.54,5.54,0,0,0,45.52,19V15.09a10.43,10.43,0,0,1,6.38,0V22.8H49.8V16.51l-.12,0h0a4.74,4.74,0,0,0-1-.08,4.88,4.88,0,0,0-1,.09h-.07v2.9c0,2.22-.54,3.05-2.32,3.55Zm31.81-3.8c-1.11,0-1.58.32-1.58,1.07s.37,1.07,1.18,1.07h0a3.21,3.21,0,0,0,1.09-.19,5,5,0,0,1-.11-1.3v-.57A2.05,2.05,0,0,0,77.08,19.16Zm-1,3.82a2.42,2.42,0,0,1-2.64-2.46,2.52,2.52,0,0,1,.82-2,3.58,3.58,0,0,1,2.4-.72,4.29,4.29,0,0,1,1.06.14v-.39c0-1-.13-1.24-1.55-1.24a11.93,11.93,0,0,0-1.66.15l-.31-1.55a11.18,11.18,0,0,1,2.71-.32c1.29,0,2,.26,2.45.86a3,3,0,0,1,.44,2v2.15a3.62,3.62,0,0,0,.7,2.41L79.13,23a2.22,2.22,0,0,1-.8-.68,3.81,3.81,0,0,1-.73.42A4.53,4.53,0,0,1,76.06,23Zm24.22-3.82c-1.11,0-1.58.32-1.58,1.07s.37,1.07,1.18,1.07h0a3.21,3.21,0,0,0,1.09-.19,5.07,5.07,0,0,1-.11-1.3v-.57A2,2,0,0,0,100.28,19.16Zm-1,3.82a2.41,2.41,0,0,1-2.63-2.46,2.51,2.51,0,0,1,.81-2,3.58,3.58,0,0,1,2.4-.72h0a4.27,4.27,0,0,1,1.05.14v-.39c0-1-.13-1.24-1.55-1.24a14.82,14.82,0,0,0-1.66.15l-.31-1.55a11.18,11.18,0,0,1,2.71-.32c1.31,0,2,.25,2.45.86a3,3,0,0,1,.44,2v2.15a3.58,3.58,0,0,0,.7,2.41l-1.34.93a2.16,2.16,0,0,1-.81-.68,4.38,4.38,0,0,1-.73.42A4.53,4.53,0,0,1,99.26,23ZM56.59,18.8a2.65,2.65,0,0,0-.74.09l-.18,0v2.3a2.51,2.51,0,0,0,.92.13c.89,0,1.29-.41,1.29-1.33S57.47,18.8,56.59,18.8Zm0,4.19a8.2,8.2,0,0,1-3.07-.61V14.72h2.1v2.62a5.2,5.2,0,0,1,1.35-.2c1.93,0,3,1,3,2.79C60.06,21.87,58.81,23,56.63,23Zm35.11-5.22a6.72,6.72,0,0,0-1.18.1V21.1a4.26,4.26,0,0,0,1.35.16,1.59,1.59,0,0,0,1.68-1.78,1.51,1.51,0,0,0-1.68-1.71Zm0,5.23h0a9.86,9.86,0,0,1-3.43-.62V11.83a14,14,0,0,1,6.55-.12l0,1.65a20.66,20.66,0,0,0-2.43-.14h-.06a14.67,14.67,0,0,0-1.78.11v2.85A6.86,6.86,0,0,1,92.22,16c2.29,0,3.61,1.22,3.61,3.35C95.83,21.66,94.35,23,91.78,23ZM11.38,5.62,8.23,15.06h6.35L11.42,5.62ZM4.84,23.82a.25.25,0,0,1-.12,0L1.06,22.38a.37.37,0,0,1-.2-.19.39.39,0,0,1,0-.28c.11-.3,1.5-4.12,3-8.16l0-.1L7.58,3.47C8.21,1.71,9,0,11.4,0A3.25,3.25,0,0,1,14,1.08a7.63,7.63,0,0,1,1.23,2.39c.21.57,4,11,5.85,16l.19.51.7,1.92a.37.37,0,0,1-.2.47l-2.49,1h0l-1.16.45-.12,0a.4.4,0,0,1-.15,0,.35.35,0,0,1-.18-.2c0-.11-.55-1.51-1.51-4.18l-.06-.17H6.75L5.17,23.59A.35.35,0,0,1,4.84,23.82Zm59.7-7.48c-1,0-1.45.83-1.45,2.46s.53,2.37,1.56,2.37A2.89,2.89,0,0,0,65.72,21V16.58a2.15,2.15,0,0,0-1.14-.24h0Zm4.42,0a2.15,2.15,0,0,0-1.14.24V21a2.94,2.94,0,0,0,1.08.17c.95,0,1.55-.93,1.55-2.42S70,16.34,69,16.34Zm-1.14,9.08h-2.1V22.54a3.2,3.2,0,0,1-1.69.39c-2,0-3.09-1.5-3.09-4.13a4.76,4.76,0,0,1,.92-3.2,3.17,3.17,0,0,1,2.52-1,2.82,2.82,0,0,1,1.34.26V11.42h2.1v3.43a2.72,2.72,0,0,1,1.34-.26c2.28,0,3.44,1.4,3.44,4.16a5,5,0,0,1-.88,3.1,2.68,2.68,0,0,1-2.21,1.08,3.26,3.26,0,0,1-1.69-.39v2.88ZM22.45,35.51H.35l-.13,0a.36.36,0,0,1-.12-.08A.37.37,0,0,1,0,35.29a.35.35,0,0,1,0-.14v-4A.31.31,0,0,1,0,31a.29.29,0,0,1,.07-.12.36.36,0,0,1,.12-.08.31.31,0,0,1,.13,0h22.1a.31.31,0,0,1,.13,0,.36.36,0,0,1,.12.08.37.37,0,0,1,.07.12.32.32,0,0,1,0,.14v4A.36.36,0,0,1,22.45,35.51Z"/></g></g></svg>