<svg xmlns="http://www.w3.org/2000/svg" viewBox="0 0 79.15 32.74"><defs><style>.cls-1{fill:#00afaa;}.cls-2{fill:#00539b;}.cls-3{fill:#f39a00;}</style></defs><title>Ресурс 3</title><g id="Слой_2" data-name="Слой 2"><g id="Слой_1-2" data-name="Слой 1"><path class="cls-1" d="M0,10.29H7.8A39.78,39.78,0,0,0,22.46,24.94v7.8A36,36,0,0,1,0,10.29"/><path class="cls-2" d="M22.46,10.29V25A39.88,39.88,0,0,1,7.8,10.29Z"/><path class="cls-1" d="M22.46,10.29H7.8A39.37,39.37,0,0,1,3.68,0h8.48a10.3,10.3,0,0,1,10.3,10.29"/><path class="cls-3" d="M32.75,20.58v8.48a39,39,0,0,1-10.29-4.12V10.29A10.29,10.29,0,0,1,32.75,20.58"/><path class="cls-1" d="M22.37,0A13.63,13.63,0,0,0,32.75,10.37V0Z"/><path class="cls-2" d="M49.83,12.71V23.18H46.65V12.71h-3.4V10.26h10v2.45H49.83Zm20.08-1.28a6.25,6.25,0,0,1,3.79-1.38c3.69,0,5.45,2.61,5.45,6.35,0,4.72-2.66,7.13-6.5,7.13s-5.85-2.41-5.85-8c0-4.63,1-7.81,2.65-9.3C71.29,4.57,71.87,4.59,74,4.05c1.33-.34,2.61-.55,3.1-.74L78.31,6A16.3,16.3,0,0,1,74.13,7.1c-2.71.54-3.94,1.47-4.23,4.33m3,9.49c2.12,0,2.9-1.72,2.9-4.18,0-2.21-.64-4-2.8-4a4,4,0,0,0-2.7.83,20.12,20.12,0,0,0-.11,3c0,2.66.84,4.38,2.71,4.38M62.54,23.18l-4.33-6.05v6.05H55V10.25h3.25V15.9L62,10.25h3.55L61.42,16.1l4.92,7.08h-3.8Z"/></g></g></svg>