<svg xmlns="http://www.w3.org/2000/svg" viewBox="0 0 137.89 30.2"><defs><style>.cls-1{fill:#6d6e72;}.cls-2{fill:#f78f1e;}</style></defs><title>Ресурс 16</title><g id="Слой_2" data-name="Слой 2"><g id="Слой_1-2" data-name="Слой 1"><path class="cls-1" d="M110.09,19.56a1,1,0,0,0-.34.06,1.07,1.07,0,0,0-.28.19,1.08,1.08,0,0,0-.2.29,1,1,0,0,0-.06.34v.28a1,1,0,0,0,.06.34,1,1,0,0,0,.2.29.87.87,0,0,0,.28.19.8.8,0,0,0,.34.07h3.53V19.56Zm5.74,3.82h-6.18a2.63,2.63,0,0,1-1.87-.78,2.6,2.6,0,0,1-.77-1.88v-.28a2.59,2.59,0,0,1,.77-1.87,2.63,2.63,0,0,1,1.87-.79h4v-.6a.79.79,0,0,0-.06-.34.81.81,0,0,0-.19-.29.84.84,0,0,0-.29-.2.88.88,0,0,0-.33-.06h-4.14l-.72-1.77h5.29a2.62,2.62,0,0,1,2.65,2.66v6.2Z"/><path class="cls-1" d="M120.41,23.38H118.2V14.52h2.21v3.26h4.3V14.52h2.21v8.86h-2.21V19.56h-4.3v3.82Zm11,0h-2.21V14.52h2.21v3.26h.83l2.42-3.26h2.6l-3.37,4.15,4,4.71h-2.75l-2.87-3.82h-.83v3.82Z"/><path class="cls-1" d="M98.51,16.29v5.32h2.87a1.86,1.86,0,0,0,1.87-1.89V18.17a1.86,1.86,0,0,0-1.87-1.88Zm3.31,7.09H96.3V11h8.28l-.72,1.77H98.51v1.78h3.31a3.5,3.5,0,0,1,1.4.28,3.6,3.6,0,0,1,1.18.79,3.63,3.63,0,0,1,1.06,2.58v1.55a3.63,3.63,0,0,1-1.06,2.59,3.6,3.6,0,0,1-1.18.79A3.5,3.5,0,0,1,101.82,23.38Z"/><path class="cls-1" d="M44.57,23.38H39.38a2.66,2.66,0,0,1-2.65-2.66V17.18a2.66,2.66,0,0,1,2.65-2.66h5.19l-.72,1.77H39.76a.88.88,0,0,0-.33.06.84.84,0,0,0-.29.2.81.81,0,0,0-.19.29.79.79,0,0,0-.06.34v3.54a.79.79,0,0,0,.06.34.85.85,0,0,0,.48.48.72.72,0,0,0,.33.07h4.09l.72,1.77Zm20.57,0H62.93V16.29H59.84a.88.88,0,0,0-.33.06.84.84,0,0,0-.29.2.7.7,0,0,0-.19.29.77.77,0,0,0-.07.34v3.54a2.69,2.69,0,0,1-2.64,2.66H55.6V21.61h.28a.72.72,0,0,0,.33-.07.85.85,0,0,0,.48-.48.8.8,0,0,0,.07-.34V17.18a2.65,2.65,0,0,1,2.64-2.66h5.74v8.86Z"/><path class="cls-1" d="M29.18,21.61h2.65a.8.8,0,0,0,.34-.07.87.87,0,0,0,.28-.19.81.81,0,0,0,.19-.29.8.8,0,0,0,.07-.34V17.18a1,1,0,0,0-.06-.34.84.84,0,0,0-.2-.29.9.9,0,0,0-.28-.2,1,1,0,0,0-.34-.06H29.17a.88.88,0,0,0-.33.06.84.84,0,0,0-.29.2.81.81,0,0,0-.19.29.76.76,0,0,0-.06.34v3.54a.79.79,0,0,0,.06.34.85.85,0,0,0,.48.48.72.72,0,0,0,.33.07Zm3.09,1.77H28.74a2.65,2.65,0,0,1-2.65-2.66V14.63a3.67,3.67,0,0,1,.27-1.4A3.81,3.81,0,0,1,27.15,12,3.65,3.65,0,0,1,29.73,11h4.14l-.72,1.77h-3a1.92,1.92,0,0,0-1.87,1.83,1.3,1.3,0,0,1,.44-.05h3.53a2.63,2.63,0,0,1,1.87.78,2.6,2.6,0,0,1,.77,1.88v3.54A2.69,2.69,0,0,1,32.27,23.38Zm16.48-7.09a.92.92,0,0,0-.33.06.84.84,0,0,0-.29.2.81.81,0,0,0-.19.29.79.79,0,0,0-.06.34v3.54a.79.79,0,0,0,.06.34.85.85,0,0,0,.48.48.78.78,0,0,0,.33.07h2.66a.8.8,0,0,0,.34-.07.87.87,0,0,0,.28-.19.84.84,0,0,0,.2-.29,1,1,0,0,0,.06-.34V17.18a.86.86,0,0,0-.25-.63.94.94,0,0,0-.29-.2,1,1,0,0,0-.34-.06H48.75Zm3.1,7.09H48.32a2.65,2.65,0,0,1-2.65-2.66V17.18a2.65,2.65,0,0,1,2.65-2.66h3.53a2.66,2.66,0,0,1,2.65,2.66v3.54A2.7,2.7,0,0,1,51.85,23.38Z"/><polygon class="cls-1" points="81.96 16.29 84.72 16.29 84.72 23.38 86.93 23.38 86.93 16.29 90.02 16.29 90.02 14.52 81.25 14.52 81.96 16.29"/><path class="cls-1" d="M19,13.3l-2,5.65H21ZM15.33,23.38h-2.7l5-12.41h2.59l5,12.41H22.61l-1-2.66H16.27l-.94,2.66Zm59.23-7.09a1,1,0,0,0-.33.06.94.94,0,0,0-.29.2.86.86,0,0,0-.25.63v3.54a.86.86,0,0,0,.25.63,1,1,0,0,0,.29.19.78.78,0,0,0,.33.07h2.67a.78.78,0,0,0,.33-.07.85.85,0,0,0,.48-.48,1,1,0,0,0,.06-.34V17.18a.93.93,0,0,0-.06-.34,1,1,0,0,0-.19-.29.94.94,0,0,0-.29-.2,1,1,0,0,0-.33-.06H74.56Zm-4.9,7.09h-2.2V14.52h2.2v3.27h1.82v-.61a2.66,2.66,0,0,1,2.65-2.66h3.53a2.62,2.62,0,0,1,2.65,2.66v3.54a2.69,2.69,0,0,1-2.65,2.66H74.13a2.66,2.66,0,0,1-2.65-2.66V19.56H69.66v3.82Z"/><path class="cls-2" d="M6.89,13.8h0V9.31A6.94,6.94,0,0,1,8.6,5.15L13.68,0l.05,4.43A6.88,6.88,0,0,1,12,8.59L6.9,13.79Zm0,9.64h0L3.75,20.22A6.77,6.77,0,0,1,2,16.07V8.87L5.18,12A6.72,6.72,0,0,1,6.9,16.12v7.31Zm6.78,6.76H9.21a6.72,6.72,0,0,1-4.14-1.72L0,23.38l4.41-.05A6.86,6.86,0,0,1,8.49,25l5.19,5.2Z"/></g></g></svg>