<svg xmlns="http://www.w3.org/2000/svg" viewBox="0 0 109.82 18.11"><defs><style>.cls-1{fill:#f5ad00;}.cls-2{fill:#05376c;}</style></defs><title>Ресурс 4</title><g id="Слой_2" data-name="Слой 2"><g id="Слой_1-2" data-name="Слой 1"><path class="cls-1" d="M13.54,13h4a3.55,3.55,0,0,0,2-.57,3.25,3.25,0,0,0,1.23-1.51l2.07-5.65H19a3.68,3.68,0,0,0-2,.5A3,3,0,0,0,15.7,7.3Z"/><path class="cls-2" d="M25.44,3.29H18.21A5.56,5.56,0,0,0,15,4.45a5.7,5.7,0,0,0-1.42,1.94l-.83,2.09-2.07,6.46h7.67a5.6,5.6,0,0,0,3.25-1.15A5.5,5.5,0,0,0,23,11.84l.83-2.09ZM25,18.11H0l1.11-3.17,3.3-9.62a3.55,3.55,0,0,1,.21-.5,2.72,2.72,0,0,0,.12-.25c.08-.17.16-.33.23-.49A5.58,5.58,0,0,1,6.9,1.55,8.25,8.25,0,0,1,11.52.12h24.3l0,.06h0L32.13,12.91a3.33,3.33,0,0,1-.21.48l-.13.27c-.07.16-.15.31-.21.47a5.66,5.66,0,0,1-1.94,2.55A8.27,8.27,0,0,1,25,18.11Z"/><path class="cls-2" d="M48.68,18.1c-2.83,0-4.73-.39-6.21-2.23-1.1-1.34-1.67-3.13-1.67-6.59,0-3,.29-5.3,1.59-6.93C44.05.23,46.71,0,48.76,0h7.71V3.44H51.6c-1.93,0-3.36,0-4.17,1.42-.52.91-.59,3.44-.59,4.32a14.79,14.79,0,0,0,.44,4.06c.78,1.42,2.47,1.42,4.42,1.42h5V18.1Z"/><polygon class="cls-2" points="70.25 0 70.25 7.12 64.45 7.12 64.45 0 58.57 0 58.57 18.1 64.45 18.1 64.45 10.55 70.25 10.55 70.25 18.1 76.13 18.1 76.13 0 70.25 0"/><path class="cls-2" d="M79.44,18.1V3.31A3.26,3.26,0,0,1,80.17.88,3.08,3.08,0,0,1,82.33,0H92V3.44H86.55c-.37,0-.84,0-1.07.25a1.65,1.65,0,0,0-.16.91V18.1Z"/><path class="cls-2" d="M99,10.1v3.72C99,15,99.34,15,100,15h2.1a2.08,2.08,0,0,0,1.35-.33c.16-.14.34-.57.34-1.82,0-1.79-.21-2.32-.39-2.45a2.1,2.1,0,0,0-1.3-.31Zm6.83,8H95.67a2.43,2.43,0,0,1-2.55-2.53V2.89A2.62,2.62,0,0,1,96,0h12.8V3.44h-8.63C99,3.44,99,3.87,99,4.52V6.88h6.78a4,4,0,0,1,3,1.19c.93,1.06,1,2.83,1,4.26a7.18,7.18,0,0,1-1,4.37A3.66,3.66,0,0,1,105.83,18.09Z"/></g></g></svg>